
<!-- Generator: visioncortex VTracer 0.6.4 -->
<svg version="1.1" xmlns="http://www.w3.org/2000/svg" viewBox="0 0 1024 1024" preserveAspectRatio="xMidYMid meet">
<path d="M0 0 C3 1 3 1 3 1 Z M-168 1 C-166 2 -166 2 -166 2 Z M-172 2 C-168 3 -168 3 -168 3 Z M-83.318 -30.13 C-80.938 -30.125 -78.558 -30.13 -76.178 -30.137 C-68.807 -30.14 -61.548 -30.008 -54.211 -29.223 C-51.405 -28.94 -48.631 -28.901 -45.812 -28.938 C-44.891 -28.947 -43.969 -28.956 -43.02 -28.965 C-42.353 -28.976 -41.687 -28.988 -41 -29 C-41 -28.34 -41 -27.68 -41 -27 C-34.4 -26.67 -27.8 -26.34 -21 -26 C-21 -25.34 -21 -24.68 -21 -24 C-20.427 -23.962 -19.854 -23.924 -19.263 -23.885 C11.855 -21.345 43.649 -8.294 71 6 C71.727 6.379 72.453 6.757 73.202 7.147 C83.126 12.393 83.126 12.393 85 17 C85.406 19.161 85.729 21.338 86 23.52 C86.081 24.161 86.161 24.803 86.244 25.465 C86.506 27.58 86.754 29.696 87 31.812 C87.086 32.546 87.173 33.279 87.262 34.035 C97.293 119.699 89.788 214.87 28 301 C19.409 311.847 10.367 322.79 0 332 C-0.66 332 -1.32 332 -2 332 C-2 332.66 -2 333.32 -2 334 C-3.614 335.457 -5.294 336.84 -7 338.188 C-10.358 340.851 -13.633 343.546 -16.832 346.398 C-20.937 350.011 -25.242 353.257 -29.688 356.438 C-30.476 357.003 -31.264 357.569 -32.076 358.152 C-38.547 362.755 -45.153 366.972 -52 371 C-53.374 371.831 -54.748 372.663 -56.121 373.496 C-59.712 375.666 -63.337 377.767 -66.987 379.837 C-68.846 380.911 -70.662 382.038 -72.48 383.18 C-77.07 385.785 -80.13 387.38 -85.422 386.305 C-89.126 384.798 -92.549 382.999 -96 381 C-97.145 380.389 -98.289 379.778 -99.469 379.148 C-123.085 366.223 -143.786 349.359 -162.812 330.438 C-163.544 329.713 -163.544 329.713 -164.291 328.975 C-170.991 322.331 -177.142 315.399 -183 308 C-184.172 306.563 -185.345 305.127 -186.52 303.691 C-194.52 293.731 -201.351 283.411 -207.674 272.316 C-208.869 270.228 -210.09 268.159 -211.324 266.094 C-229.557 235.232 -241.754 200.243 -248 165 C-248.195 163.899 -248.391 162.798 -248.592 161.663 C-255.91 118.901 -255.835 74.797 -250 31.875 C-249.834 30.654 -249.668 29.433 -249.497 28.175 C-247.648 15.409 -247.648 15.409 -243.875 12.184 C-203.822 -12.142 -157.258 -24.3 -111 -29 C-110.082 -29.099 -109.163 -29.197 -108.217 -29.299 C-99.917 -30.104 -91.649 -30.153 -83.318 -30.13 Z M-224 22 C-226.987 24.987 -226.934 28.592 -227.5 32.625 C-227.627 33.507 -227.755 34.39 -227.886 35.299 C-229.388 46.158 -230.246 57.067 -231 68 C-231.059 68.839 -231.119 69.678 -231.18 70.543 C-232.427 88.748 -232.348 106.856 -231.125 125.062 C-231.047 126.239 -230.968 127.415 -230.887 128.626 C-230.286 136.82 -229.256 144.882 -228 153 C-227.01 153 -226.02 153 -225 153 C-225.66 153.33 -226.32 153.66 -227 154 C-225.09 182.968 -214.769 212.117 -202 238 C-201.459 239.108 -201.459 239.108 -200.907 240.239 C-193.65 254.968 -184.62 268.472 -174 281 C-173.286 281.848 -172.572 282.696 -171.836 283.57 C-168.096 288.239 -168.096 288.239 -163 291 C-163.17 290.452 -163.34 289.904 -163.516 289.34 C-165.878 281.612 -167.947 273.814 -170 266 C-170.66 266 -171.32 266 -172 266 C-172 265 -172 265 -171.375 263.375 C-170.799 260.905 -170.799 260.905 -171.906 258.258 C-173.723 252.187 -173.759 245.79 -174.125 239.5 C-174.188 238.469 -174.188 238.469 -174.251 237.418 C-175.703 213.27 -175.834 189.019 -170.878 165.225 C-170.177 161.762 -170.002 159.373 -171 156 C-185.078 181.284 -191.381 206.003 -191 235 C-191.99 235 -192.98 235 -194 235 C-195.363 229.674 -196.694 224.34 -198 219 C-198.285 217.841 -198.57 216.682 -198.863 215.488 C-201.113 205.739 -202.099 195.946 -203 186 C-203.66 186 -204.32 186 -205 186 C-204.67 185.34 -204.34 184.68 -204 184 C-203.812 182.023 -203.678 180.041 -203.57 178.059 C-203.499 176.842 -203.427 175.626 -203.354 174.373 C-203.278 173.074 -203.203 171.776 -203.125 170.438 C-201.386 142.983 -201.386 142.983 -197 133 C-197.66 133 -198.32 133 -199 133 C-199 133.66 -199 134.32 -199 135 C-199.55 135.088 -200.101 135.175 -200.668 135.266 C-203.714 136.225 -205.764 137.832 -208.312 139.75 C-212.508 142.886 -216.731 145.966 -221 149 C-220.01 136.502 -217.875 124.928 -214 113 C-213.784 112.328 -213.567 111.655 -213.344 110.962 C-208.158 95.218 -200.492 79.872 -190 67 C-189.544 66.44 -189.088 65.88 -188.618 65.303 C-179.616 54.308 -179.616 54.308 -177 53 C-177 52.34 -177 51.68 -177 51 C-176.443 50.758 -175.886 50.515 -175.312 50.266 C-172.526 48.741 -170.391 46.842 -168 44.75 C-163.092 40.636 -158.183 37.859 -152.336 35.289 C-149.679 34.167 -149.679 34.167 -149 31 C-150.65 31 -152.3 31 -154 31 C-154 31.99 -154 32.98 -154 34 C-154.33 33.34 -154.66 32.68 -155 32 C-160.896 31.699 -165.841 32.784 -171.5 34.375 C-172.316 34.597 -173.132 34.818 -173.973 35.047 C-178.659 36.326 -183.331 37.657 -188 39 C-188.33 38.67 -188.66 38.34 -189 38 C-188.34 37.649 -187.68 37.299 -187 36.938 C-184.531 35.343 -182.738 33.863 -180.625 31.875 C-163.579 16.773 -140.618 9.971 -118.768 5.458 C-116.987 5.156 -116.987 5.156 -116 4 C-87.842 1.544 -57.11 1.415 -32 16 C-32.575 12.069 -32.575 12.069 -35 9 C-35 8.34 -35 7.68 -35 7 C-35.99 7 -36.98 7 -38 7 C-37.01 6.505 -37.01 6.505 -36 6 C-36 5.34 -36 4.68 -36 4 C-11.476 14.101 6.808 27.409 18 52 C22.629 63.532 23.18 75.725 24 88 C19.815 83.947 16.298 79.633 12.77 75.012 C12.186 74.348 11.602 73.684 11 73 C10.34 73 9.68 73 9 73 C8.747 72.408 8.495 71.817 8.234 71.207 C3.75 63.188 -7.827 58.349 -16 55 C-17.32 55 -18.64 55 -20 55 C-21.508 57.6 -23.006 60.204 -24.5 62.812 C-24.929 63.55 -25.359 64.288 -25.801 65.049 C-26.207 65.761 -26.613 66.473 -27.031 67.207 C-27.597 68.189 -27.597 68.189 -28.174 69.191 C-29.208 71.123 -29.208 71.123 -29 74 C-29.66 74 -30.32 74 -31 74 C-31.147 73.371 -31.294 72.742 -31.445 72.094 C-33.15 65.588 -35.475 60.97 -40 56 C-40.565 55.37 -41.129 54.739 -41.711 54.09 C-49.248 46.6 -58.995 44.641 -69.312 44.5 C-83.491 44.692 -98.533 48.486 -109.359 58.094 C-111.217 59.833 -111.217 59.833 -111 62 C-109.583 61.688 -108.167 61.376 -106.75 61.062 C-105.567 60.801 -105.567 60.801 -104.359 60.535 C-102.231 60.052 -100.115 59.538 -98 59 C-104.526 68.295 -111.566 77.141 -123 80 C-120.69 74.72 -118.38 69.44 -116 64 C-127.673 65.769 -140.181 69.649 -148 79 C-150.346 82.454 -151.168 85.028 -150.438 89.25 C-148.856 92.275 -147.924 93.302 -145 95 C-136.6 95.995 -128.2 94.874 -120 93 C-119.865 93.895 -119.729 94.789 -119.59 95.711 C-117.794 105.797 -114.756 113.686 -106.375 120 C-100.621 123.41 -96.056 124.415 -89.375 124.438 C-88.547 124.442 -87.719 124.447 -86.865 124.451 C-79.7 124.326 -73.359 122.734 -66.52 120.729 C-58.307 118.375 -51.638 118.41 -44.023 122.621 C-39.687 125.576 -34.384 129.232 -32 134 C-32.655 134.135 -33.31 134.271 -33.984 134.41 C-45.658 137.164 -55.713 142.463 -62.125 152.816 C-64.244 158.105 -63.906 165.068 -62.242 170.453 C-61.286 172.426 -60.24 174.194 -59 176 C-58.402 176.928 -57.804 177.856 -57.188 178.812 C-54.299 181.701 -51.914 182.826 -48 184 C-36.559 184 -27.748 176.597 -19 170 C-16.14 167.948 -13.276 165.902 -10.41 163.859 C-5.885 160.368 -3.207 157.707 -2 152 C-1.884 145.528 -3.911 141.215 -8.434 136.508 C-11.833 133.361 -15.406 131.156 -19.5 129 C-28.688 124.117 -32.773 119.497 -37 110 C-37.298 108.988 -37.596 107.976 -37.902 106.934 C-41.322 102.151 -46.307 101.544 -51.812 100.062 C-54.175 99.384 -56.537 98.704 -58.898 98.023 C-60.088 97.688 -61.277 97.352 -62.503 97.007 C-67.685 95.515 -72.81 93.856 -77.938 92.188 C-84.91 89.923 -91.913 87.879 -99 86 C-98.408 85.705 -97.817 85.41 -97.207 85.106 C-95.363 84.182 -93.524 83.247 -91.688 82.309 C-90.458 81.685 -89.229 81.061 -88 80.438 C-87.384 80.121 -86.768 79.805 -86.133 79.479 C-76.282 74.5 -68.069 75.687 -57.688 78.5 C-49.194 80.668 -40.584 82.861 -32 80 C-31.986 80.643 -31.972 81.286 -31.957 81.949 C-31.425 92.022 -28.715 103.02 -21 110 C-9.196 116.583 3.628 113.163 16 110 C16.232 107.716 16.232 107.716 13.812 105.75 C12.42 104.389 12.42 104.389 11 103 C7.219 98.795 4.598 94.723 2.188 89.625 C1.876 88.984 1.565 88.344 1.244 87.684 C0.489 86.126 -0.257 84.564 -1 83 C22.944 91.564 41.354 113.757 52.249 135.906 C66.014 165.033 65.518 197.059 54.933 227.092 C49.908 240.797 43.303 253.691 34.266 265.211 C32.807 266.907 32.807 266.907 33 269 C32.34 269 31.68 269 31 269 C29.776 270.41 28.621 271.881 27.5 273.375 C16.516 287.346 2.935 298.149 -13 306 C-12.7 304.996 -12.399 303.992 -12.09 302.957 C-7.385 286.411 -9.376 271.725 -17.535 256.398 C-28.613 238.26 -44.9 228.299 -65 223 C-83.515 219.654 -102.338 222.958 -118.266 233.074 C-124.579 237.619 -130.434 242.649 -135 249 C-135 249.66 -135 250.32 -135 251 C-135.66 251 -136.32 251 -137 251 C-147.633 264.533 -151.371 283.399 -149.438 300.25 C-146.611 320.245 -134.909 336.49 -119.084 348.516 C-105.09 358.663 -90.831 361.57 -74 361 C-76.453 358.547 -77.37 358.705 -80.75 358.5 C-84.788 358.179 -88.188 357.43 -92 356 C-92.66 356 -93.32 356 -94 356 C-112.366 347.3 -129.531 335.567 -137.219 315.879 C-143.359 297.962 -142.609 280.072 -134.438 262.938 C-126.633 247.54 -114.908 238.867 -98.945 232.945 C-83.764 228.073 -64.311 229.735 -50.113 236.871 C-34.185 245.454 -24.176 258.4 -18.891 275.613 C-17.644 280.837 -17.67 286.029 -17.688 291.375 C-17.671 292.352 -17.655 293.329 -17.639 294.336 C-17.632 303.689 -19.854 311.344 -24.188 319.625 C-24.717 320.649 -25.247 321.672 -25.793 322.727 C-26.39 323.852 -26.39 323.852 -27 325 C-2.546 321.474 22.087 294.672 36.316 276.164 C41.063 269.751 45.151 262.981 49 256 C49.347 255.379 49.693 254.759 50.05 254.119 C65.204 226.644 71.895 194.24 67.562 163.125 C67.428 162.107 67.293 161.088 67.154 160.039 C66.503 154.916 66.503 154.916 65.45 149.869 C63.876 143.331 65.722 135.268 66.494 128.59 C67.952 115.829 68.357 103.213 68.312 90.375 C68.312 89.364 68.311 88.353 68.31 87.311 C68.285 73.699 67.867 60.182 66.625 46.625 C66.562 45.932 66.499 45.238 66.434 44.524 C66.122 32.093 66.122 32.093 61.304 21.556 C58.952 20.147 56.513 19.1 54 18 C52.904 17.43 51.809 16.86 50.68 16.273 C-29.546 -25.016 -146.087 -23.033 -224 22 Z M16 136 C15.355 145.669 17.666 155.435 24 163 C28.922 167.902 28.922 167.902 35 171 C35.821 155.474 35.821 155.474 29.199 141.809 C25.018 137.79 21.794 136.121 16 136 Z M-170 154 C-169 156 -169 156 -169 156 Z M-0.312 179.375 C-0.925 179.739 -1.537 180.102 -2.168 180.477 C-4.12 181.639 -6.06 182.818 -8 184 C-9.842 185.111 -11.686 186.22 -13.531 187.328 C-14.765 188.07 -15.997 188.815 -17.229 189.561 C-22.621 192.814 -28.103 195.896 -33.634 198.906 C-37.392 200.98 -40.717 203.201 -44 206 C-40.877 208.045 -37.751 210.085 -34.625 212.125 C-33.755 212.695 -32.885 213.265 -31.988 213.852 C-27.569 216.732 -23.131 219.585 -18.648 222.367 C-17.874 222.85 -17.1 223.334 -16.302 223.832 C-13.808 225.097 -11.784 225.734 -9 226 C-3.454 222.213 -1.742 216.286 0 210 C0 209.01 0 208.02 0 207 C2.862 209.438 3.857 211.784 5.062 215.312 C5.399 216.284 5.735 217.256 6.082 218.258 C6.385 219.163 6.688 220.068 7 221 C7.413 222.217 7.825 223.434 8.25 224.688 C8.498 225.451 8.745 226.214 9 227 C16.169 220.827 19.069 212.281 20 203 C20.116 194.847 18.226 185.007 12.5 178.875 C7.306 174.98 5.151 176.085 -0.312 179.375 Z M-69 250 C-69 250.66 -69 251.32 -69 252 C-73.697 253.879 -77.989 254.833 -83 254 C-85.995 252.297 -88.538 250.359 -91.25 248.25 C-95.981 246.099 -101.189 245.979 -106.098 247.762 C-109.508 249.594 -112.263 251.527 -114 255 C-114.971 259.274 -115.188 262.775 -114 267 C-113.473 273.319 -114.178 277.823 -118 283 C-119.485 284.373 -121.009 285.705 -122.562 287 C-126.78 290.564 -129.184 293.464 -130 299 C-130.351 305.665 -128.359 310.962 -124 316 C-120.269 318.639 -116.388 319.407 -112 320.438 C-101.919 322.883 -101.919 322.883 -98.898 327.789 C-97.864 329.834 -96.928 331.905 -96 334 C-93.135 339.788 -90.195 343.44 -84.312 346.312 C-78.285 347.564 -73.117 347.159 -67.688 344.188 C-64.966 341.588 -63.945 338.606 -62.625 335.125 C-60.258 329.086 -57.775 325.157 -52 322 C-49.664 321.291 -47.307 320.649 -44.938 320.062 C-39.129 318.593 -35.768 317.079 -32.211 312.203 C-29.249 306.814 -28.352 302.235 -30 296.25 C-31.71 291.892 -34.193 289.741 -38 287 C-42.237 283.157 -45.658 279.639 -46.215 273.711 C-46.274 269.479 -45.933 265.484 -45.25 261.312 C-44.639 256.31 -45.912 253.958 -49 250 C-56.576 245.059 -61.573 245.608 -69 250 Z M-73 359 C-69 360 -69 360 -69 360 Z M-34 3 C-32 4 -32 4 -32 4 Z M-140 8 C-138 9 -138 9 -138 9 Z M44 15 C46 16 46 16 46 16 Z M-182 29 C-180 30 -180 30 -180 30 Z M-181 52 C-180.01 52.495 -180.01 52.495 -179 53 C-179.99 53.495 -179.99 53.495 -181 54 C-181 53.34 -181 52.68 -181 52 Z M-40 137 C-37 138 -37 138 -37 138 Z M-30 213 C-28 214 -28 214 -28 214 Z M-111 235 C-109 236 -109 236 -109 236 Z M-104 248 C-101 249 -101 249 -101 249 Z M-96 248 C-94 249 -94 249 -94 249 Z M-54 249 C-52 250 -52 250 -52 250 Z M-24 252 C-22 253 -22 253 -22 253 Z M-22 253 C-21.34 253.66 -20.68 254.32 -20 255 C-20.66 255 -21.32 255 -22 255 C-22 254.34 -22 253.68 -22 253 Z M1 307 C3 308 3 308 3 308 Z M-123 343 C-121 344 -121 344 -121 344 Z M-108 353 C-106 354 -106 354 -106 354 Z M-103 355 C-101 356 -101 356 -101 356 Z M-101 356 C-99 357 -99 357 -99 357 Z M-64 378 C-62 379 -62 379 -62 379 Z " fill="#FDFDFD" transform="translate(352,357)"/>
<path d="M0 0 C6.853 -0.551 13.688 -0.873 20.564 -0.734 C21.688 -0.716 22.811 -0.697 23.968 -0.678 C27.916 0.205 29.181 1.771 31.531 4.996 C32.373 7.324 33.194 9.659 34 12 C35.533 14.695 37.278 17.23 39.031 19.785 C39.936 21.153 40.838 22.522 41.738 23.893 C42.659 25.283 43.579 26.673 44.5 28.062 C46.324 30.823 48.147 33.585 49.969 36.348 C50.403 37.005 50.837 37.663 51.285 38.341 C54.919 43.855 58.482 49.411 62 55 C61.988 54.071 61.977 53.141 61.965 52.184 C61.875 39.905 61.875 39.905 63 34 C62.34 34 61.68 34 61 34 C61.495 33.01 61.495 33.01 62 32 C62.152 30.334 62.249 28.663 62.316 26.992 C62.379 25.513 62.379 25.513 62.443 24.004 C62.483 22.971 62.522 21.939 62.562 20.875 C62.627 19.315 62.627 19.315 62.693 17.723 C62.8 15.149 62.902 12.574 63 10 C62.34 9.67 61.68 9.34 61 9 C61.66 9 62.32 9 63 9 C62.814 7.701 62.629 6.401 62.438 5.062 C62.121 2.848 62.121 2.848 62 1 C63 0 63 0 65.317 -0.114 C66.317 -0.108 67.317 -0.103 68.348 -0.098 C69.427 -0.094 70.507 -0.091 71.619 -0.088 C73.324 -0.075 73.324 -0.075 75.062 -0.062 C76.773 -0.056 76.773 -0.056 78.518 -0.049 C81.345 -0.037 84.173 -0.021 87 0 C88.712 3.423 88.138 7.349 88.129 11.115 C88.132 12.533 88.132 12.533 88.135 13.978 C88.139 17.112 88.136 20.245 88.133 23.379 C88.133 25.548 88.134 27.718 88.136 29.887 C88.137 34.438 88.135 38.988 88.13 43.539 C88.125 49.386 88.128 55.233 88.134 61.08 C88.138 65.56 88.136 70.041 88.134 74.521 C88.133 76.678 88.134 78.835 88.136 80.991 C88.139 83.999 88.135 87.006 88.129 90.014 C88.131 90.914 88.133 91.814 88.136 92.742 C88.114 98.886 88.114 98.886 87 100 C85.36 100.268 83.717 100.526 82.068 100.733 C80.68 100.912 79.296 101.119 77.916 101.353 C72.582 102.203 67.184 102.82 62 101 C57.383 97.254 54.894 91.592 52.253 86.386 C50.293 82.654 47.96 79.193 45.625 75.688 C44.722 74.295 43.821 72.902 42.922 71.508 C40.771 68.186 38.614 64.87 36.453 61.555 C35.858 60.641 35.263 59.728 34.65 58.786 C33.484 56.998 32.318 55.21 31.151 53.423 C30.624 52.614 30.097 51.806 29.555 50.973 C29.085 50.253 28.616 49.534 28.132 48.793 C27 47 27 47 26 45 C24.745 47.509 24.841 49.284 24.795 52.092 C24.775 53.153 24.755 54.214 24.734 55.307 C24.718 56.456 24.701 57.605 24.684 58.789 C24.663 59.963 24.642 61.136 24.621 62.345 C24.555 66.105 24.496 69.865 24.438 73.625 C24.394 76.169 24.351 78.714 24.307 81.258 C24.199 87.505 24.098 93.753 24 100 C21.292 100.169 18.583 100.335 15.875 100.5 C14.734 100.572 14.734 100.572 13.57 100.645 C5.125 101.154 5.125 101.154 1 101 C-0.943 99.057 -0.12 96.115 -0.124 93.529 C-0.121 92.598 -0.117 91.666 -0.114 90.707 C-0.114 89.731 -0.114 88.756 -0.114 87.751 C-0.113 84.51 -0.105 81.268 -0.098 78.027 C-0.096 75.787 -0.094 73.546 -0.093 71.306 C-0.09 65.395 -0.08 59.485 -0.069 53.575 C-0.058 47.549 -0.054 41.524 -0.049 35.498 C-0.038 23.665 -0.021 11.833 0 0 Z M24 42 C25 44 25 44 25 44 Z " fill="#FCFDFD" transform="translate(680,502)"/>
<path d="M0 0 C3.751 2.501 4.527 4.887 6.328 8.906 C8.299 12.553 10.642 15.811 13.043 19.186 C16.499 24.156 19.676 29.3 22.875 34.438 C23.55 35.512 24.226 36.586 24.922 37.693 C25.564 38.721 26.206 39.749 26.867 40.809 C27.735 42.198 27.735 42.198 28.621 43.615 C30 46 30 46 31 49 C35.855 46.267 40.229 42.948 44.688 39.625 C46.386 38.368 48.086 37.111 49.785 35.855 C51.081 34.897 51.081 34.897 52.403 33.919 C56.469 30.914 60.541 27.918 64.625 24.938 C65.334 24.414 66.042 23.891 66.772 23.352 C79.632 14 79.632 14 83 14 C82.371 19.913 81.265 25.529 79.82 31.293 C79.607 32.161 79.393 33.029 79.174 33.923 C78.495 36.679 77.81 39.433 77.125 42.188 C76.23 45.806 75.338 49.424 74.445 53.043 C74.232 53.908 74.018 54.773 73.797 55.664 C72.129 62.427 70.532 69.204 69 76 C64.647 75.563 60.319 75.094 56.012 74.316 C44.529 72.281 33.066 71.439 21.438 70.812 C20.268 70.749 20.268 70.749 19.076 70.683 C6.357 70.001 -6.164 69.77 -18.875 70.75 C-19.975 70.834 -21.076 70.917 -22.21 71.003 C-32.387 71.838 -42.469 73.19 -52.568 74.679 C-53.728 74.849 -54.887 75.02 -56.082 75.195 C-57.105 75.35 -58.129 75.505 -59.183 75.665 C-61.822 75.979 -64.346 76.063 -67 76 C-72.767 56.45 -77.857 36.721 -83 17 C-81.282 16.316 -81.282 16.316 -79 16 C-76.833 17.159 -76.833 17.159 -74.48 18.949 C-73.601 19.599 -72.721 20.25 -71.814 20.919 C-70.885 21.606 -69.957 22.293 -69 23 C-67.108 24.289 -65.208 25.566 -63.301 26.832 C-62.326 27.481 -61.35 28.13 -60.346 28.799 C-59.345 29.463 -58.344 30.128 -57.312 30.812 C-55.204 32.215 -53.096 33.617 -50.988 35.02 C-49.971 35.696 -48.953 36.372 -47.905 37.069 C-43.934 39.709 -39.967 42.354 -36 45 C-34.813 45.792 -33.625 46.583 -32.438 47.375 C-31.633 47.911 -30.829 48.447 -30 49 C-29.269 47.776 -29.269 47.776 -28.523 46.527 C-23.672 38.416 -18.783 30.327 -13.875 22.25 C-13.302 21.305 -12.729 20.36 -12.138 19.386 C-8.174 12.871 -4.117 6.42 0 0 Z M31 46 C31.66 46 32.32 46 33 46 C32.67 46.66 32.34 47.32 32 48 C31.67 47.34 31.34 46.68 31 46 Z M-7 70 C-6.34 70.66 -5.68 71.32 -5 72 C-5.66 72 -6.32 72 -7 72 C-7 71.34 -7 70.68 -7 70 Z " fill="#FDFDFD" transform="translate(269,252)"/>
<path d="M0 0 C0 0.66 0 1.32 0 2 C0.66 2 1.32 2 2 2 C4.277 4.81 6.113 7.919 8 11 C8.388 11.623 8.776 12.245 9.176 12.887 C16.243 25.466 16.209 40.339 13 54 C11.957 57.191 10.606 60.055 9 63 C8.528 63.886 8.056 64.771 7.57 65.684 C0.548 77.797 -9.946 84.964 -23.195 88.965 C-37.541 92.645 -52.448 91.772 -65.629 84.5 C-78.471 76.376 -85.541 66.518 -90 52 C-93.015 37.788 -91.803 22.261 -84.008 9.808 C-75.456 -2.892 -63.075 -10.444 -48.102 -13.371 C-30.644 -15.999 -13.518 -11.337 0 0 Z M-59.531 19.07 C-65.261 26.598 -66.951 34.665 -66 44 C-64.022 51.898 -59.834 58.829 -52.945 63.348 C-45.426 67.306 -38.175 68.026 -29.938 65.75 C-21.595 62.998 -17.118 58.666 -13 51 C-9.859 43.072 -9.709 34.497 -12.75 26.5 C-16.037 19.436 -20.197 15.632 -27 12 C-38.982 8.006 -50.727 9.394 -59.531 19.07 Z " fill="#FDFDFD" transform="translate(655,515)"/>
<path d="M0 0 C10.283 -0.023 20.566 -0.041 30.849 -0.052 C35.623 -0.057 40.398 -0.064 45.172 -0.075 C49.776 -0.086 54.379 -0.092 58.983 -0.095 C60.743 -0.097 62.503 -0.1 64.264 -0.106 C66.721 -0.113 69.178 -0.114 71.635 -0.114 C72.737 -0.119 72.737 -0.119 73.862 -0.124 C78.886 -0.114 78.886 -0.114 80 1 C81.354 9.405 76.94 15.104 72.625 22 C71.88 23.219 71.137 24.439 70.395 25.659 C68.285 29.12 66.145 32.561 64 36 C63.068 37.505 62.135 39.01 61.203 40.516 C59.674 42.974 58.133 45.424 56.586 47.871 C52.523 54.321 48.596 60.856 44.644 67.374 C43.784 68.792 43.784 68.792 42.906 70.238 C42.394 71.084 41.881 71.93 41.354 72.802 C40.272 74.558 39.144 76.284 38 78 C57.8 78.495 57.8 78.495 78 79 C78 78.34 78 77.68 78 77 C78.66 77.33 79.32 77.66 80 78 C80 85.26 80 92.52 80 100 C64.876 101.059 49.789 101.156 34.635 101.13 C31.093 101.125 27.552 101.128 24.01 101.134 C20.609 101.138 17.209 101.135 13.809 101.133 C12.536 101.135 11.263 101.137 9.952 101.139 C8.207 101.134 8.207 101.134 6.427 101.129 C4.887 101.128 4.887 101.128 3.315 101.127 C1 101 1 101 0 100 C-1.303 95.003 -0.55 91.081 1.773 86.516 C3.901 83.037 6.186 79.664 8.473 76.29 C11.132 72.302 13.618 68.209 16.125 64.125 C17.217 62.359 18.31 60.594 19.402 58.828 C22.045 54.55 24.682 50.268 27.316 45.984 C27.68 45.393 28.044 44.801 28.419 44.191 C30.212 41.276 32.004 38.359 33.795 35.442 C34.444 34.386 35.093 33.33 35.762 32.242 C36.339 31.302 36.916 30.362 37.51 29.394 C38.642 27.576 39.812 25.782 41 24 C39.19 24.008 39.19 24.008 37.344 24.016 C32.884 24.034 28.425 24.045 23.965 24.055 C22.032 24.06 20.099 24.067 18.165 24.075 C15.393 24.088 12.62 24.093 9.848 24.098 C8.543 24.105 8.543 24.105 7.212 24.113 C5.141 24.113 3.07 24.062 1 24 C0 23 0 23 -0.114 20.775 C-0.108 19.817 -0.103 18.858 -0.098 17.871 C-0.094 16.837 -0.091 15.802 -0.088 14.736 C-0.08 13.648 -0.071 12.559 -0.062 11.438 C-0.058 10.345 -0.053 9.253 -0.049 8.127 C-0.037 5.418 -0.021 2.709 0 0 Z " fill="#FDFDFD" transform="translate(483,502)"/>
<path d="M0 0 C21.78 0 43.56 0 66 0 C66 6.6 66 13.2 66 20 C52.14 20 38.28 20 24 20 C24 25.94 24 31.88 24 38 C27.165 39.582 30.591 39.242 34.07 39.316 C35.265 39.348 35.265 39.348 36.483 39.379 C39.03 39.445 41.578 39.504 44.125 39.562 C45.85 39.606 47.576 39.649 49.301 39.693 C53.534 39.801 57.767 39.902 62 40 C62.029 43.146 62.047 46.292 62.062 49.438 C62.071 50.335 62.079 51.233 62.088 52.158 C62.091 53.012 62.094 53.866 62.098 54.746 C62.103 55.537 62.108 56.328 62.114 57.142 C62 59 62 59 61 60 C58.261 60.089 55.547 60.115 52.809 60.098 C51.989 60.096 51.169 60.095 50.324 60.093 C47.695 60.088 45.066 60.075 42.438 60.062 C40.66 60.057 38.882 60.053 37.104 60.049 C32.736 60.039 28.368 60.019 24 60 C24 66.27 24 72.54 24 79 C37.86 79 51.72 79 66 79 C66 85.93 66 92.86 66 100 C61.982 100.804 58.864 101.122 54.833 101.114 C53.612 101.113 52.391 101.113 51.133 101.113 C49.825 101.108 48.516 101.103 47.168 101.098 C45.807 101.096 44.447 101.094 43.087 101.093 C39.517 101.09 35.948 101.08 32.379 101.069 C28.733 101.058 25.086 101.054 21.439 101.049 C14.293 101.038 7.146 101.021 0 101 C-0.915 98.256 -1.115 96.733 -1.082 93.919 C-1.075 93.09 -1.068 92.261 -1.061 91.408 C-1.042 90.049 -1.042 90.049 -1.022 88.663 C-1.012 87.707 -1.003 86.751 -0.993 85.765 C-0.96 82.6 -0.919 79.435 -0.879 76.27 C-0.855 74.077 -0.831 71.884 -0.807 69.691 C-0.744 63.915 -0.675 58.14 -0.605 52.365 C-0.522 45.437 -0.447 38.51 -0.37 31.582 C-0.252 21.055 -0.125 10.527 0 0 Z " fill="#FCFCFC" transform="translate(782,502)"/>
<path d="M0 0 C3.416 -0.145 6.832 -0.234 10.25 -0.312 C11.218 -0.354 12.186 -0.396 13.184 -0.439 C14.118 -0.456 15.053 -0.472 16.016 -0.488 C16.874 -0.514 17.733 -0.541 18.618 -0.568 C22.917 0.457 24.465 4.145 26.692 7.707 C27.511 9.138 27.511 9.138 28.348 10.598 C28.953 11.646 29.558 12.695 30.182 13.775 C31.113 15.403 31.113 15.403 32.062 17.062 C33.301 19.221 34.542 21.379 35.785 23.535 C36.331 24.488 36.876 25.441 37.438 26.422 C38.841 28.737 40.332 30.871 42 33 C42.605 31.919 42.605 31.919 43.222 30.816 C44.735 28.112 46.248 25.408 47.762 22.703 C48.732 20.97 49.702 19.236 50.672 17.502 C51.902 15.305 53.135 13.11 54.373 10.917 C55.342 9.18 56.293 7.432 57.205 5.665 C59.558 1.16 59.558 1.16 61.842 0.334 C64.045 -0.007 66.1 -0.114 68.328 -0.098 C69.527 -0.093 69.527 -0.093 70.75 -0.088 C71.987 -0.075 71.987 -0.075 73.25 -0.062 C74.09 -0.058 74.931 -0.053 75.797 -0.049 C77.865 -0.037 79.932 -0.019 82 0 C83.096 43.683 83.096 43.683 83.125 58.062 C83.13 58.943 83.134 59.823 83.139 60.73 C83.124 66.868 82.616 72.894 82 79 C75.73 79 69.46 79 63 79 C63 66.13 63 53.26 63 40 C62.34 40 61.68 40 61 40 C61.495 39.01 61.495 39.01 62 38 C61.67 37.67 61.34 37.34 61 37 C60.581 37.752 60.162 38.504 59.731 39.279 C58.18 42.062 56.627 44.844 55.073 47.626 C54.401 48.832 53.728 50.037 53.057 51.243 C52.093 52.974 51.127 54.704 50.16 56.434 C49.579 57.476 48.998 58.518 48.399 59.592 C47 62 47 62 46 63 C42.725 63.621 41.114 63.898 38 63 C30.508 56.111 24.228 41.303 20 34 C19.67 48.85 19.34 63.7 19 79 C12.73 79 6.46 79 0 79 C-0.495 76.525 -0.495 76.525 -1 74 C-1.206 73.01 -1.413 72.02 -1.625 71 C-2 68 -2 68 -1.527 65.848 C-0.819 62.023 -0.894 58.317 -0.938 54.438 C-0.942 53.683 -0.947 52.928 -0.951 52.15 C-0.964 50.1 -0.982 48.05 -1 46 C-1 44.68 -1 43.36 -1 42 C-1.011 40.592 -1.023 39.185 -1.035 37.777 C-1.044 36.164 -1.054 34.551 -1.062 32.938 C-1.071 32.122 -1.079 31.307 -1.088 30.467 C-1.091 29.682 -1.094 28.898 -1.098 28.09 C-1.103 27.377 -1.108 26.664 -1.114 25.929 C-1 24 -1 24 0 21 C-0.66 20.67 -1.32 20.34 -2 20 C-1.835 19.505 -1.67 19.01 -1.5 18.5 C-0.694 14.468 -0.13 9.74 -2 6 C-1.34 6 -0.68 6 0 6 C0 4.02 0 2.04 0 0 Z M63 32 C64 34 64 34 64 34 Z " fill="#FCFCFC" transform="translate(678,408)"/>
<path d="M0 0 C41.696 0 41.696 0 48.906 6.797 C54.096 12.455 56.491 17.241 57 25 C56.4 31.799 54.608 37.844 50 43 C47.458 44.938 44.838 46.535 42 48 C46.116 55.885 50.666 63.448 55.392 70.98 C55.858 71.73 56.324 72.481 56.805 73.254 C57.439 74.264 57.439 74.264 58.085 75.295 C59 77 59 77 59 79 C52.07 79 45.14 79 38 79 C37.67 78.34 37.34 77.68 37 77 C36.01 77.495 36.01 77.495 35 78 C34.889 77.121 34.778 76.241 34.664 75.335 C33.585 69.915 30.781 65.487 28.125 60.688 C27.582 59.674 27.04 58.66 26.48 57.615 C25.953 56.653 25.426 55.691 24.883 54.699 C24.402 53.821 23.921 52.943 23.426 52.038 C22.091 49.699 22.091 49.699 19 49 C18.67 58.9 18.34 68.8 18 79 C12.06 79 6.12 79 0 79 C0 52.93 0 26.86 0 0 Z M18 16 C17.973 18.979 17.953 21.958 17.938 24.938 C17.929 25.788 17.921 26.638 17.912 27.514 C17.909 28.323 17.906 29.131 17.902 29.965 C17.897 30.714 17.892 31.463 17.886 32.234 C17.807 34.027 17.807 34.027 19 35 C24.369 35.278 28.978 35.166 34 33 C36.563 29.556 37.01 27.605 36.938 23.312 C36.28 19.994 36.28 19.994 34.188 18.125 C30.361 16.157 27.024 15.881 22.75 15.938 C21.412 15.951 21.412 15.951 20.047 15.965 C19.371 15.976 18.696 15.988 18 16 Z " fill="#FCFCFC" transform="translate(549,408)"/>
<path d="M0 0 C1.774 -0.018 1.774 -0.018 3.584 -0.037 C15.816 -0.057 27.873 0.363 37.188 9.188 C41.628 15.432 42.936 21.604 42.188 29.188 C40.9 35.078 38.612 40.95 34.188 45.188 C32.216 46.243 30.218 47.252 28.188 48.188 C32.667 56.793 37.278 65.243 42.48 73.438 C43.441 74.986 44.323 76.583 45.188 78.188 C44.857 78.847 44.528 79.507 44.188 80.188 C37.435 81.265 30.549 82.195 24.188 79.188 C18.615 73.237 15.482 65.398 12.404 57.942 C11.185 55.182 9.878 52.687 8.188 50.188 C6.102 49.309 6.102 49.309 4.188 49.188 C4.431 50.829 4.431 50.829 4.68 52.504 C5.329 57.713 5.334 62.883 5.312 68.125 C5.318 69.561 5.318 69.561 5.324 71.025 C5.323 71.934 5.322 72.842 5.32 73.777 C5.319 74.601 5.318 75.425 5.317 76.273 C5.188 78.188 5.188 78.188 4.188 79.188 C2.845 79.274 1.498 79.295 0.152 79.285 C-0.657 79.282 -1.465 79.279 -2.299 79.275 C-3.149 79.267 -3.999 79.259 -4.875 79.25 C-5.729 79.245 -6.583 79.241 -7.463 79.236 C-9.579 79.225 -11.696 79.207 -13.812 79.188 C-13.812 75.558 -13.812 71.928 -13.812 68.188 C-14.472 67.858 -15.133 67.528 -15.812 67.188 C-15.153 67.188 -14.492 67.188 -13.812 67.188 C-13.815 66.363 -13.817 65.538 -13.819 64.689 C-13.839 56.934 -13.854 49.178 -13.864 41.423 C-13.87 37.436 -13.877 33.449 -13.888 29.461 C-13.899 25.616 -13.905 21.771 -13.907 17.926 C-13.909 16.456 -13.913 14.986 -13.918 13.516 C-13.925 11.464 -13.926 9.412 -13.926 7.36 C-13.928 6.189 -13.93 5.019 -13.933 3.813 C-13.646 -2.458 -4.818 0.003 0 0 Z M4.188 17.188 C4.101 18.53 4.08 19.877 4.09 21.223 C4.093 22.032 4.096 22.84 4.1 23.674 C4.108 24.524 4.116 25.374 4.125 26.25 C4.13 27.104 4.134 27.958 4.139 28.838 C4.15 30.954 4.168 33.071 4.188 35.188 C5.916 35.242 7.646 35.281 9.375 35.312 C10.819 35.347 10.819 35.347 12.293 35.383 C16.237 35.117 19.093 34.207 22 31.5 C23.723 28.144 23.71 25.907 23.188 22.188 C20.646 19.028 19.041 17.472 15.188 16.188 C13.481 16.095 11.771 16.058 10.062 16.062 C8.728 16.059 8.728 16.059 7.367 16.055 C5.21 15.944 5.21 15.944 4.188 17.188 Z " fill="#FCFCFC" transform="translate(880.8125,407.8125)"/>
<path d="M0 0 C1.467 -0.005 1.467 -0.005 2.963 -0.01 C4.026 -0.008 5.09 -0.006 6.186 -0.003 C7.811 -0.005 7.811 -0.005 9.47 -0.006 C11.767 -0.007 14.063 -0.005 16.36 -0.001 C19.889 0.004 23.418 -0.001 26.947 -0.007 C29.173 -0.007 31.398 -0.005 33.623 -0.003 C34.687 -0.005 35.75 -0.007 36.846 -0.01 C37.824 -0.006 38.801 -0.003 39.809 0 C40.674 0.001 41.539 0.002 42.431 0.002 C44.404 0.129 44.404 0.129 45.404 1.129 C45.504 3.807 45.543 6.452 45.529 9.129 C45.535 10.255 45.535 10.255 45.541 11.403 C45.531 17.003 45.531 17.003 44.404 18.129 C42.113 18.217 39.819 18.236 37.525 18.227 C36.495 18.225 36.495 18.225 35.445 18.223 C33.244 18.217 31.043 18.205 28.842 18.192 C27.353 18.187 25.864 18.182 24.375 18.178 C20.718 18.167 17.061 18.15 13.404 18.129 C13.404 22.089 13.404 26.049 13.404 30.129 C22.314 30.129 31.224 30.129 40.404 30.129 C41.404 35.129 41.404 35.129 40.404 47.129 C31.494 46.799 22.584 46.469 13.404 46.129 C13.734 50.419 14.064 54.709 14.404 59.129 C17.869 59.624 17.869 59.624 21.404 60.129 C21.404 60.459 21.404 60.789 21.404 61.129 C29.324 61.459 37.244 61.789 45.404 62.129 C45.404 67.739 45.404 73.349 45.404 79.129 C28.574 79.129 11.744 79.129 -5.596 79.129 C-5.636 59.703 -5.636 59.703 -5.645 51.452 C-5.651 45.811 -5.658 40.171 -5.671 34.53 C-5.682 29.985 -5.688 25.44 -5.691 20.894 C-5.692 19.156 -5.696 17.418 -5.701 15.68 C-5.709 13.255 -5.71 10.829 -5.709 8.403 C-5.713 7.677 -5.716 6.952 -5.72 6.204 C-5.708 0.586 -5.577 0.005 0 0 Z M13.404 61.129 C17.404 62.129 17.404 62.129 17.404 62.129 Z " fill="#FCFCFC" transform="translate(621.595703125,407.87060546875)"/>
<path d="M0 0 C6.818 -0.025 13.635 -0.043 20.453 -0.055 C22.774 -0.06 25.095 -0.067 27.417 -0.075 C30.745 -0.088 34.074 -0.093 37.402 -0.098 C38.447 -0.103 39.492 -0.108 40.568 -0.113 C41.529 -0.113 42.49 -0.113 43.48 -0.114 C44.331 -0.116 45.181 -0.118 46.057 -0.12 C48 0 48 0 49 1 C49.127 3.637 49.185 6.237 49.188 8.875 C49.2 9.608 49.212 10.342 49.225 11.098 C49.235 14.936 49.178 16.733 47 20 C47 19.34 47 18.68 47 18 C37.76 18 28.52 18 19 18 C18.67 21.96 18.34 25.92 18 30 C26.91 30 35.82 30 45 30 C45 35.28 45 40.56 45 46 C42.461 46.228 39.922 46.456 37.383 46.684 C34.989 46.87 34.989 46.87 33 48 C33 47.34 33 46.68 33 46 C28.05 46 23.1 46 18 46 C18 51.28 18 56.56 18 62 C28.23 62 38.46 62 49 62 C49 67.61 49 73.22 49 79 C46.582 80.209 45.155 80.087 42.458 80.022 C41.047 79.992 41.047 79.992 39.608 79.961 C38.59 79.934 37.572 79.907 36.523 79.879 C34.963 79.843 34.963 79.843 33.371 79.807 C30.039 79.731 26.707 79.647 23.375 79.562 C21.12 79.509 18.865 79.457 16.609 79.404 C11.073 79.275 5.536 79.14 0 79 C-0.597 76.237 -1 73.84 -1 71 C-1.012 70.312 -1.023 69.623 -1.035 68.914 C-1.084 64.8 -1.036 61.015 0 57 C-0.66 56.67 -1.32 56.34 -2 56 C-1.67 55.34 -1.34 54.68 -1 54 C-1 52.036 -1.003 50.073 -1.031 48.109 C-0.99 45.342 -0.542 42.709 0 40 C-0.66 39.67 -1.32 39.34 -2 39 C-1.34 39 -0.68 39 0 39 C-0.084 38.094 -0.168 37.188 -0.254 36.254 C-0.836 29.296 -1.071 22.903 0 16 C-0.66 15.67 -1.32 15.34 -2 15 C-1.34 15 -0.68 15 0 15 C-0.186 13.824 -0.371 12.649 -0.562 11.438 C-1.189 7.472 -0.599 3.951 0 0 Z M41 47 C43 48 43 48 43 48 Z M-3 74 C-2.67 74 -2.34 74 -2 74 C-2 75.65 -2 77.3 -2 79 C-2.33 79 -2.66 79 -3 79 C-3 77.35 -3 75.7 -3 74 Z " fill="#FCFCFC" transform="translate(807,408)"/>
<path d="M0 0 C0.684 0 1.369 0 2.074 0 C4.117 -0.002 6.16 -0.02 8.203 -0.039 C30.375 -0.072 30.375 -0.072 38.785 6.186 C44.446 12.086 46.818 17.793 47.223 25.936 C47.048 34.244 44.04 40.362 38.098 46.123 C29.039 53.249 18.722 52.552 7.785 52.186 C7.924 55.811 8.072 59.436 8.223 63.061 C8.262 64.093 8.301 65.126 8.342 66.189 C8.384 67.176 8.426 68.162 8.469 69.178 C8.505 70.089 8.542 71 8.58 71.939 C8.651 74.22 8.651 74.22 9.785 76.186 C9.125 76.186 8.465 76.186 7.785 76.186 C7.785 77.176 7.785 78.166 7.785 79.186 C1.515 79.186 -4.755 79.186 -11.215 79.186 C-12.498 76.619 -12.342 74.794 -12.344 71.92 C-12.347 70.817 -12.351 69.714 -12.354 68.578 C-12.352 67.376 -12.35 66.174 -12.348 64.936 C-12.349 63.694 -12.35 62.452 -12.351 61.172 C-12.351 58.529 -12.35 55.886 -12.345 53.243 C-12.339 49.258 -12.345 45.272 -12.352 41.287 C-12.355 30.309 -12.358 19.338 -11.77 8.373 C-11.711 7.271 -11.711 7.271 -11.652 6.146 C-11.143 -1.894 -7.221 0.032 0 0 Z M7.785 16.186 C7.785 22.456 7.785 28.726 7.785 35.186 C10.879 35.247 10.879 35.247 14.035 35.311 C15.195 35.334 16.355 35.357 17.551 35.381 C20.638 35.194 22.245 34.875 24.785 33.186 C27.091 29.957 27.182 27.071 26.785 23.186 C25.413 19.832 24.46 18.531 21.223 16.873 C16.653 15.959 12.444 16.06 7.785 16.186 Z " fill="#FCFCFC" transform="translate(494.21484375,407.814453125)"/>
<path d="M0 0 C6.27 0 12.54 0 19 0 C19 26.07 19 52.14 19 79 C12.73 79 6.46 79 0 79 C0 52.93 0 26.86 0 0 Z " fill="#FCFCFC" transform="translate(775,408)"/>
<path d="M0 0 C5.537 4.114 8.478 9.367 9.625 16.148 C9.916 22.065 8.642 26.742 5.188 31.562 C0.421 36.551 -5.233 39.442 -12.18 39.625 C-18.781 39.092 -23.575 37.161 -28.062 32.188 C-32.48 26.986 -33.268 22.011 -33.125 15.348 C-32.473 9.536 -30.094 5.874 -26.062 1.75 C-17.544 -3.984 -9.216 -5.389 0 0 Z " fill="#FDFDFD" transform="translate(283.8125,633.4375)"/>
<path d="M0 0 C1.32 0 2.64 0 4 0 C4 0.66 4 1.32 4 2 C5.32 2.33 6.64 2.66 8 3 C5.69 3 3.38 3 1 3 C0.67 2.01 0.34 1.02 0 0 Z " fill="#FEFEFE" transform="translate(257,323)"/>
<path d="M0 0 C0.33 0 0.66 0 1 0 C1 3.3 1 6.6 1 10 C0.67 10 0.34 10 0 10 C0 6.7 0 3.4 0 0 Z " fill="#FDFDFD" transform="translate(547,456)"/>
<path d="M0 0 C2.31 0 4.62 0 7 0 C7 0.33 7 0.66 7 1 C4.69 1 2.38 1 0 1 C0 0.67 0 0.34 0 0 Z " fill="#F5F5F5" transform="translate(820,579)"/>
<path d="M0 0 C2.31 0 4.62 0 7 0 C7 0.33 7 0.66 7 1 C4.69 1 2.38 1 0 1 C0 0.67 0 0.34 0 0 Z " fill="#F5F5F5" transform="translate(825,540)"/>
<path d="M0 0 C1.65 0 3.3 0 5 0 C5 0.33 5 0.66 5 1 C3.35 1 1.7 1 0 1 C0 0.67 0 0.34 0 0 Z " fill="#F5F5F5" transform="translate(849,468)"/>
<path d="M0 0 C0.33 0 0.66 0 1 0 C1 2.31 1 4.62 1 7 C0.67 7 0.34 7 0 7 C0 4.69 0 2.38 0 0 Z " fill="#FAFAFA" transform="translate(547,443)"/>
<path d="M0 0 C0.66 0 1.32 0 2 0 C1.67 0.99 1.34 1.98 1 3 C0.67 2.01 0.34 1.02 0 0 Z " fill="#FEFEFE" transform="translate(286,323)"/>
<path d="M0 0 C0.33 0 0.66 0 1 0 C1 1.98 1 3.96 1 6 C0.67 6 0.34 6 0 6 C0 4.02 0 2.04 0 0 Z " fill="#FEFEFE" transform="translate(418,523)"/>
<path d="M0 0 C0.33 0 0.66 0 1 0 C1 1.98 1 3.96 1 6 C0.67 6 0.34 6 0 6 C0 4.02 0 2.04 0 0 Z " fill="#FBFBFB" transform="translate(547,473)"/>
<path d="M0 0 C1.98 0 3.96 0 6 0 C6 0.33 6 0.66 6 1 C4.02 1 2.04 1 0 1 C0 0.67 0 0.34 0 0 Z " fill="#F5F5F5" transform="translate(650,468)"/>
<path d="M0 0 C1.98 0.99 1.98 0.99 4 2 C2.68 2 1.36 2 0 2 C0 1.34 0 0.68 0 0 Z " fill="#F8F8F8" transform="translate(636,435)"/>
<path d="M0 0 C3 1 3 1 3 1 Z M4 0 C6 1 6 1 6 1 Z " fill="#FEFEFE" transform="translate(282,403)"/>
<path d="M0 0 C1.32 0.66 2.64 1.32 4 2 C2.35 2 0.7 2 -1 2 C-0.67 1.34 -0.34 0.68 0 0 Z " fill="#FEFEFE" transform="translate(277,324)"/>
<path d="M0 0 C1.98 0 3.96 0 6 0 C6 0.33 6 0.66 6 1 C4.02 1 2.04 1 0 1 C0 0.67 0 0.34 0 0 Z " fill="#FEFEFE" transform="translate(250,323)"/>
<path d="M0 0 C2 1 2 1 2 1 Z " fill="#FEFEFE" transform="translate(336,659)"/>
<path d="M0 0 C0.33 0 0.66 0 1 0 C1 1.65 1 3.3 1 5 C0.67 5 0.34 5 0 5 C0 3.35 0 1.7 0 0 Z " fill="#FEFEFE" transform="translate(208,651)"/>
<path d="M0 0 C0.33 0 0.66 0 1 0 C1 1.65 1 3.3 1 5 C0.67 5 0.34 5 0 5 C0 3.35 0 1.7 0 0 Z " fill="#FEFEFE" transform="translate(642,552)"/>
<path d="M0 0 C1.65 0 3.3 0 5 0 C5 0.33 5 0.66 5 1 C3.35 1 1.7 1 0 1 C0 0.67 0 0.34 0 0 Z " fill="#FEFEFE" transform="translate(700,500)"/>
<path d="M0 0 C0.33 0 0.66 0 1 0 C1 1.65 1 3.3 1 5 C0.67 5 0.34 5 0 5 C0 3.35 0 1.7 0 0 Z " fill="#FEFEFE" transform="translate(547,480)"/>
<path d="M0 0 C1.65 0 3.3 0 5 0 C5 0.33 5 0.66 5 1 C3.35 1 1.7 1 0 1 C0 0.67 0 0.34 0 0 Z " fill="#F5F5F5" transform="translate(644,468)"/>
<path d="M0 0 C2 1 2 1 2 1 Z " fill="#FEFEFE" transform="translate(380,636)"/>
<path d="M0 0 C3 1 3 1 3 1 Z " fill="#FEFEFE" transform="translate(270,613)"/>
<path d="M0 0 C1 4 1 4 1 4 Z " fill="#FEFEFE" transform="translate(562,555)"/>
<path d="M0 0 C1 4 1 4 1 4 Z " fill="#FEFEFE" transform="translate(436,532)"/>
<path d="M0 0 C4 1 4 1 4 1 Z " fill="#FEFEFE" transform="translate(546,500)"/>
<path d="M0 0 C4 1 4 1 4 1 Z " fill="#FEFEFE" transform="translate(540,500)"/>
<path d="M0 0 C4 1 4 1 4 1 Z " fill="#FEFEFE" transform="translate(484,500)"/>
<path d="M0 0 C4 1 4 1 4 1 Z " fill="#F5F5F5" transform="translate(643,455)"/>
<path d="M0 0 C1 4 1 4 1 4 Z " fill="#FEFEFE" transform="translate(418,451)"/>
<path d="M0 0 C1 4 1 4 1 4 Z " fill="#FEFEFE" transform="translate(417,413)"/>
<path d="M0 0 C1 4 1 4 1 4 Z " fill="#FEFEFE" transform="translate(124,403)"/>
<path d="M0 0 C0.99 1.485 0.99 1.485 2 3 C1.34 3 0.68 3 0 3 C0 2.01 0 1.02 0 0 Z " fill="#F5F5F5" transform="translate(436,369)"/>
<path d="" fill="#F5F5F5" transform="translate(0,0)"/>
<path d="M0 0 C0.99 0.495 0.99 0.495 2 1 C1.01 1.495 1.01 1.495 0 2 C0 1.34 0 0.68 0 0 Z " fill="#FEFEFE" transform="translate(336,661)"/>
<path d="M0 0 C0.66 0 1.32 0 2 0 C1.67 0.66 1.34 1.32 1 2 C0.67 1.34 0.34 0.68 0 0 Z " fill="#FEFEFE" transform="translate(396,614)"/>
<path d="" fill="#F5F5F5" transform="translate(0,0)"/>
<path d="" fill="#FEFEFE" transform="translate(0,0)"/>
<path d="M0 0 C3 1 3 1 3 1 Z " fill="#FEFEFE" transform="translate(544,579)"/>
<path d="" fill="#FEFEFE" transform="translate(0,0)"/>
<path d="" fill="#FEFEFE" transform="translate(0,0)"/>
<path d="M0 0 C3 1 3 1 3 1 Z " fill="#F5F5F5" transform="translate(844,523)"/>
<path d="M0 0 C3 1 3 1 3 1 Z " fill="#F5F5F5" transform="translate(843,500)"/>
<path d="M0 0 C3 1 3 1 3 1 Z " fill="#FEFEFE" transform="translate(828,500)"/>
<path d="M0 0 C3 1 3 1 3 1 Z " fill="#FEFEFE" transform="translate(556,500)"/>
<path d="M0 0 C3 1 3 1 3 1 Z " fill="#FEFEFE" transform="translate(524,500)"/>
<path d="M0 0 C0.66 0.66 1.32 1.32 2 2 C1.34 2 0.68 2 0 2 C0 1.34 0 0.68 0 0 Z " fill="#D9D9D9" transform="translate(926,483)"/>
<path d="" fill="#F8F8F8" transform="translate(0,0)"/>
<path d="M0 0 C0.33 0.66 0.66 1.32 1 2 C0.34 1.67 -0.32 1.34 -1 1 C-0.67 0.67 -0.34 0.34 0 0 Z " fill="#F5F5F5" transform="translate(887,483)"/>
<path d="M0 0 C3 1 3 1 3 1 Z " fill="#FEFEFE" transform="translate(288,474)"/>
<path d="M0 0 C3 1 3 1 3 1 Z " fill="#F5F5F5" transform="translate(892,470)"/>
<path d="" fill="#FBFBFB" transform="translate(0,0)"/>
<path d="M0 0 C3 1 3 1 3 1 Z " fill="#FEFEFE" transform="translate(308,462)"/>
<path d="M0 0 C3 1 3 1 3 1 Z " fill="#FEFEFE" transform="translate(512,461)"/>
<path d="" fill="#F5F5F5" transform="translate(0,0)"/>
<path d="" fill="#F5F5F5" transform="translate(0,0)"/>
<path d="" fill="#F5F5F5" transform="translate(0,0)"/>
<path d="" fill="#F5F5F5" transform="translate(0,0)"/>
<path d="M0 0 C0.99 0.495 0.99 0.495 2 1 C1.01 1.495 1.01 1.495 0 2 C0 1.34 0 0.68 0 0 Z " fill="#FEFEFE" transform="translate(164,398)"/>
<path d="" fill="#FEFEFE" transform="translate(0,0)"/>
<path d="" fill="#FBFBFB" transform="translate(0,0)"/>
<path d="M0 0 C0.99 0.495 0.99 0.495 2 1 C1.01 1.495 1.01 1.495 0 2 C0 1.34 0 0.68 0 0 Z " fill="#FEFEFE" transform="translate(197,355)"/>
<path d="M0 0 C3 1 3 1 3 1 Z " fill="#FEFEFE" transform="translate(266,325)"/>
<path d="" fill="#F5F5F5" transform="translate(0,0)"/>
<path d="M0 0 C2 1 2 1 2 1 Z " fill="#FEFEFE" transform="translate(268,716)"/>
<path d="" fill="#FEFEFE" transform="translate(0,0)"/>
<path d="" fill="#FEFEFE" transform="translate(0,0)"/>
<path d="M0 0 C2 1 2 1 2 1 Z " fill="#FEFEFE" transform="translate(311,673)"/>
<path d="M0 0 C2 1 2 1 2 1 Z " fill="#FEFEFE" transform="translate(207,669)"/>
<path d="" fill="#FEFEFE" transform="translate(0,0)"/>
<path d="" fill="#FEFEFE" transform="translate(0,0)"/>
<path d="" fill="#FEFEFE" transform="translate(0,0)"/>
<path d="M0 0 C2 1 2 1 2 1 Z " fill="#FEFEFE" transform="translate(324,610)"/>
<path d="" fill="#FEFEFE" transform="translate(0,0)"/>
<path d="" fill="#FEFEFE" transform="translate(0,0)"/>
<path d="" fill="#F5F5F5" transform="translate(0,0)"/>
<path d="" fill="#F5F5F5" transform="translate(0,0)"/>
<path d="M0 0 C2 1 2 1 2 1 Z " fill="#FEFEFE" transform="translate(266,585)"/>
<path d="M0 0 C2 1 2 1 2 1 Z " fill="#FEFEFE" transform="translate(269,580)"/>
<path d="M0 0 C2 1 2 1 2 1 Z " fill="#F5F5F5" transform="translate(817,579)"/>
<path d="M0 0 C2 1 2 1 2 1 Z " fill="#F5F5F5" transform="translate(814,579)"/>
<path d="M0 0 C2 1 2 1 2 1 Z " fill="#FEFEFE" transform="translate(550,579)"/>
<path d="M0 0 C2 1 2 1 2 1 Z " fill="#FEFEFE" transform="translate(534,579)"/>
<path d="M0 0 C2 1 2 1 2 1 Z " fill="#FEFEFE" transform="translate(526,579)"/>
<path d="" fill="#FEFEFE" transform="translate(0,0)"/>
<path d="" fill="#FEFEFE" transform="translate(0,0)"/>
<path d="" fill="#FEFEFE" transform="translate(0,0)"/>
<path d="" fill="#FEFEFE" transform="translate(0,0)"/>
<path d="M0 0 C2 1 2 1 2 1 Z " fill="#F5F5F5" transform="translate(822,563)"/>
<path d="" fill="#FEFEFE" transform="translate(0,0)"/>
<path d="M0 0 C2 1 2 1 2 1 Z " fill="#F5F5F5" transform="translate(833,540)"/>
<path d="M0 0 C2 1 2 1 2 1 Z " fill="#F9F9F9" transform="translate(817,540)"/>
<path d="M0 0 C2 1 2 1 2 1 Z " fill="#FEFEFE" transform="translate(809,540)"/>
<path d="M0 0 C2 1 2 1 2 1 Z " fill="#FEFEFE" transform="translate(668,534)"/>
<path d="M0 0 C2 1 2 1 2 1 Z " fill="#FEFEFE" transform="translate(616,526)"/>
<path d="" fill="#F5F5F5" transform="translate(0,0)"/>
<path d="" fill="#FEFEFE" transform="translate(0,0)"/>
<path d="" fill="#FEFEFE" transform="translate(0,0)"/>
<path d="" fill="#FEFEFE" transform="translate(0,0)"/>
<path d="" fill="#FEFEFE" transform="translate(0,0)"/>
<path d="" fill="#FEFEFE" transform="translate(0,0)"/>
<path d="M0 0 C2 1 2 1 2 1 Z " fill="#FEFEFE" transform="translate(644,506)"/>
<path d="M0 0 C2 1 2 1 2 1 Z " fill="#FEFEFE" transform="translate(796,500)"/>
<path d="M0 0 C2 1 2 1 2 1 Z " fill="#FEFEFE" transform="translate(764,500)"/>
<path d="M0 0 C2 1 2 1 2 1 Z " fill="#FEFEFE" transform="translate(695,500)"/>
<path d="M0 0 C2 1 2 1 2 1 Z " fill="#FEFEFE" transform="translate(692,500)"/>
<path d="M0 0 C2 1 2 1 2 1 Z " fill="#FEFEFE" transform="translate(532,500)"/>
<path d="M0 0 C2 1 2 1 2 1 Z " fill="#FEFEFE" transform="translate(508,500)"/>
<path d="M0 0 C2 1 2 1 2 1 Z " fill="#FEFEFE" transform="translate(492,500)"/>
<path d="" fill="#F5F5F5" transform="translate(0,0)"/>
<path d="" fill="#F9F9F9" transform="translate(0,0)"/>
<path d="" fill="#FEFEFE" transform="translate(0,0)"/>
<path d="" fill="#F9F9F9" transform="translate(0,0)"/>
<path d="" fill="#F9F9F9" transform="translate(0,0)"/>
<path d="" fill="#F5F5F5" transform="translate(0,0)"/>
<path d="M0 0 C2 1 2 1 2 1 Z " fill="#F5F5F5" transform="translate(844,468)"/>
<path d="M0 0 C2 1 2 1 2 1 Z " fill="#F5F5F5" transform="translate(836,468)"/>
<path d="M0 0 C2 1 2 1 2 1 Z " fill="#F5F5F5" transform="translate(831,468)"/>
<path d="M0 0 C2 1 2 1 2 1 Z " fill="#F5F5F5" transform="translate(828,468)"/>
<path d="" fill="#FEFEFE" transform="translate(0,0)"/>
<path d="M0 0 C2 1 2 1 2 1 Z " fill="#F9F9F9" transform="translate(508,461)"/>
<path d="M0 0 C2 1 2 1 2 1 Z " fill="#F9F9F9" transform="translate(503,461)"/>
<path d="M0 0 C2 1 2 1 2 1 Z " fill="#FEFEFE" transform="translate(301,460)"/>
<path d="M0 0 C2 1 2 1 2 1 Z " fill="#F5F5F5" transform="translate(640,455)"/>
<path d="" fill="#FEFEFE" transform="translate(0,0)"/>
<path d="M0 0 C2 1 2 1 2 1 Z " fill="#FEFEFE" transform="translate(274,451)"/>
<path d="" fill="#F5F5F5" transform="translate(0,0)"/>
<path d="" fill="#F5F5F5" transform="translate(0,0)"/>
<path d="M0 0 C2 1 2 1 2 1 Z " fill="#FEFEFE" transform="translate(309,436)"/>
<path d="M0 0 C2 1 2 1 2 1 Z " fill="#FEFEFE" transform="translate(299,434)"/>
<path d="" fill="#FEFEFE" transform="translate(0,0)"/>
<path d="" fill="#F5F5F5" transform="translate(0,0)"/>
<path d="" fill="#FEFEFE" transform="translate(0,0)"/>
<path d="" fill="#F5F5F5" transform="translate(0,0)"/>
<path d="" fill="#F5F5F5" transform="translate(0,0)"/>
<path d="" fill="#F5F5F5" transform="translate(0,0)"/>
<path d="" fill="#F5F5F5" transform="translate(0,0)"/>
<path d="" fill="#FEFEFE" transform="translate(0,0)"/>
<path d="" fill="#F5F5F5" transform="translate(0,0)"/>
<path d="M0 0 C2 1 2 1 2 1 Z " fill="#FEFEFE" transform="translate(292,404)"/>
<path d="" fill="#FEFEFE" transform="translate(0,0)"/>
<path d="M0 0 C2 1 2 1 2 1 Z " fill="#FEFEFE" transform="translate(378,365)"/>
<path d="" fill="#FEFEFE" transform="translate(0,0)"/>
<path d="M0 0 C2 1 2 1 2 1 Z " fill="#FEFEFE" transform="translate(227,361)"/>
<path d="M0 0 C2 1 2 1 2 1 Z " fill="#FEFEFE" transform="translate(197,358)"/>
<path d="M0 0 C2 1 2 1 2 1 Z " fill="#FEFEFE" transform="translate(348,356)"/>
<path d="M0 0 C2 1 2 1 2 1 Z " fill="#FEFEFE" transform="translate(324,351)"/>
<path d="M0 0 C2 1 2 1 2 1 Z " fill="#FEFEFE" transform="translate(297,348)"/>
<path d="M0 0 C2 1 2 1 2 1 Z " fill="#F5F5F5" transform="translate(148,348)"/>
<path d="M0 0 C2 1 2 1 2 1 Z " fill="#FEFEFE" transform="translate(286,347)"/>
<path d="M0 0 C2 1 2 1 2 1 Z " fill="#FEFEFE" transform="translate(279,347)"/>
<path d="M0 0 C2 1 2 1 2 1 Z " fill="#FEFEFE" transform="translate(255,347)"/>
<path d="M0 0 C2 1 2 1 2 1 Z " fill="#FEFEFE" transform="translate(181,337)"/>
<path d="M0 0 C2 1 2 1 2 1 Z " fill="#FEFEFE" transform="translate(334,331)"/>
<path d="" fill="#FEFEFE" transform="translate(0,0)"/>
<path d="M0 0 C2 1 2 1 2 1 Z " fill="#FEFEFE" transform="translate(226,328)"/>
<path d="M0 0 C2 1 2 1 2 1 Z " fill="#FEFEFE" transform="translate(224,326)"/>
<path d="M0 0 C2 1 2 1 2 1 Z " fill="#FEFEFE" transform="translate(271,325)"/>
<path d="M0 0 C2 1 2 1 2 1 Z " fill="#FEFEFE" transform="translate(301,324)"/>
<path d="M0 0 C2 1 2 1 2 1 Z " fill="#FEFEFE" transform="translate(244,324)"/>
<path d="M0 0 C2 1 2 1 2 1 Z " fill="#FEFEFE" transform="translate(270,323)"/>
<path d="" fill="#FEFEFE" transform="translate(0,0)"/>
<path d="" fill="#FEFEFE" transform="translate(0,0)"/>
<path d="" fill="#F9F9F9" transform="translate(0,0)"/>
<path d="" fill="#434343" transform="translate(0,0)"/>
<path d="" fill="#434343" transform="translate(0,0)"/>
<path d="" fill="#434343" transform="translate(0,0)"/>
<path d="" fill="#3B3B3B" transform="translate(0,0)"/>
<path d="" fill="#434343" transform="translate(0,0)"/>
<path d="" fill="#434343" transform="translate(0,0)"/>
<path d="" fill="#575757" transform="translate(0,0)"/>
<path d="" fill="#3B3B3B" transform="translate(0,0)"/>
<path d="" fill="#3B3B3B" transform="translate(0,0)"/>
<path d="" fill="#575757" transform="translate(0,0)"/>
<path d="" fill="#F5F5F5" transform="translate(0,0)"/>
<path d="" fill="#E7E8E8" transform="translate(0,0)"/>
<path d="" fill="#F5F5F5" transform="translate(0,0)"/>
<path d="" fill="#F5F5F5" transform="translate(0,0)"/>
<path d="" fill="#F5F5F5" transform="translate(0,0)"/>
<path d="" fill="#F5F5F5" transform="translate(0,0)"/>
<path d="" fill="#F5F5F5" transform="translate(0,0)"/>
<path d="" fill="#FEFEFE" transform="translate(0,0)"/>
<path d="" fill="#FEFEFE" transform="translate(0,0)"/>
<path d="" fill="#F5F5F5" transform="translate(0,0)"/>
<path d="" fill="#FEFEFE" transform="translate(0,0)"/>
<path d="" fill="#F5F5F5" transform="translate(0,0)"/>
<path d="" fill="#F5F5F5" transform="translate(0,0)"/>
<path d="" fill="#F5F5F5" transform="translate(0,0)"/>
<path d="" fill="#FEFEFE" transform="translate(0,0)"/>
<path d="" fill="#FEFEFE" transform="translate(0,0)"/>
<path d="" fill="#F5F5F5" transform="translate(0,0)"/>
<path d="" fill="#F5F5F5" transform="translate(0,0)"/>
<path d="" fill="#FEFEFE" transform="translate(0,0)"/>
<path d="" fill="#F5F5F5" transform="translate(0,0)"/>
<path d="" fill="#F5F5F5" transform="translate(0,0)"/>
<path d="" fill="#FEFEFE" transform="translate(0,0)"/>
<path d="" fill="#FEFEFE" transform="translate(0,0)"/>
<path d="" fill="#FEFEFE" transform="translate(0,0)"/>
<path d="" fill="#FEFEFE" transform="translate(0,0)"/>
<path d="" fill="#FEFEFE" transform="translate(0,0)"/>
<path d="" fill="#FEFEFE" transform="translate(0,0)"/>
<path d="" fill="#FEFEFE" transform="translate(0,0)"/>
<path d="" fill="#FEFEFE" transform="translate(0,0)"/>
<path d="" fill="#F5F5F5" transform="translate(0,0)"/>
<path d="" fill="#FEFEFE" transform="translate(0,0)"/>
<path d="" fill="#F5F5F5" transform="translate(0,0)"/>
<path d="" fill="#FEFEFE" transform="translate(0,0)"/>
<path d="" fill="#FEFEFE" transform="translate(0,0)"/>
<path d="" fill="#FEFEFE" transform="translate(0,0)"/>
<path d="" fill="#FEFEFE" transform="translate(0,0)"/>
<path d="" fill="#FEFEFE" transform="translate(0,0)"/>
<path d="" fill="#F5F5F5" transform="translate(0,0)"/>
<path d="" fill="#FEFEFE" transform="translate(0,0)"/>
<path d="" fill="#FEFEFE" transform="translate(0,0)"/>
<path d="" fill="#FEFEFE" transform="translate(0,0)"/>
<path d="" fill="#FEFEFE" transform="translate(0,0)"/>
<path d="" fill="#FEFEFE" transform="translate(0,0)"/>
<path d="" fill="#FEFEFE" transform="translate(0,0)"/>
<path d="" fill="#FEFEFE" transform="translate(0,0)"/>
<path d="" fill="#FEFEFE" transform="translate(0,0)"/>
<path d="" fill="#FEFEFE" transform="translate(0,0)"/>
<path d="" fill="#FEFEFE" transform="translate(0,0)"/>
<path d="" fill="#FEFEFE" transform="translate(0,0)"/>
<path d="" fill="#FEFEFE" transform="translate(0,0)"/>
<path d="" fill="#FEFEFE" transform="translate(0,0)"/>
<path d="" fill="#FEFEFE" transform="translate(0,0)"/>
<path d="" fill="#FEFEFE" transform="translate(0,0)"/>
<path d="" fill="#FEFEFE" transform="translate(0,0)"/>
<path d="" fill="#F5F5F5" transform="translate(0,0)"/>
<path d="" fill="#FEFEFE" transform="translate(0,0)"/>
<path d="" fill="#FEFEFE" transform="translate(0,0)"/>
<path d="" fill="#FEFEFE" transform="translate(0,0)"/>
<path d="" fill="#F5F5F5" transform="translate(0,0)"/>
<path d="" fill="#F5F5F5" transform="translate(0,0)"/>
<path d="" fill="#FEFEFE" transform="translate(0,0)"/>
<path d="" fill="#FEFEFE" transform="translate(0,0)"/>
<path d="" fill="#FEFEFE" transform="translate(0,0)"/>
<path d="" fill="#FEFEFE" transform="translate(0,0)"/>
<path d="" fill="#FEFEFE" transform="translate(0,0)"/>
<path d="" fill="#F5F5F5" transform="translate(0,0)"/>
<path d="" fill="#FEFEFE" transform="translate(0,0)"/>
<path d="" fill="#FEFEFE" transform="translate(0,0)"/>
<path d="" fill="#F5F5F5" transform="translate(0,0)"/>
<path d="" fill="#FEFEFE" transform="translate(0,0)"/>
<path d="" fill="#FEFEFE" transform="translate(0,0)"/>
<path d="" fill="#FEFEFE" transform="translate(0,0)"/>
<path d="" fill="#FEFEFE" transform="translate(0,0)"/>
<path d="" fill="#F5F5F5" transform="translate(0,0)"/>
<path d="" fill="#FEFEFE" transform="translate(0,0)"/>
<path d="" fill="#FEFEFE" transform="translate(0,0)"/>
<path d="" fill="#FEFEFE" transform="translate(0,0)"/>
<path d="" fill="#F5F5F5" transform="translate(0,0)"/>
<path d="" fill="#FEFEFE" transform="translate(0,0)"/>
<path d="" fill="#FEFEFE" transform="translate(0,0)"/>
<path d="" fill="#FEFEFE" transform="translate(0,0)"/>
<path d="" fill="#F5F5F5" transform="translate(0,0)"/>
<path d="" fill="#FEFEFE" transform="translate(0,0)"/>
<path d="" fill="#FEFEFE" transform="translate(0,0)"/>
<path d="" fill="#F5F5F5" transform="translate(0,0)"/>
<path d="" fill="#F5F5F5" transform="translate(0,0)"/>
<path d="" fill="#F5F5F5" transform="translate(0,0)"/>
<path d="" fill="#F5F5F5" transform="translate(0,0)"/>
<path d="" fill="#F5F5F5" transform="translate(0,0)"/>
<path d="" fill="#F5F5F5" transform="translate(0,0)"/>
<path d="" fill="#F5F5F5" transform="translate(0,0)"/>
<path d="" fill="#F5F5F5" transform="translate(0,0)"/>
<path d="" fill="#FEFEFE" transform="translate(0,0)"/>
<path d="" fill="#F5F5F5" transform="translate(0,0)"/>
<path d="" fill="#FEFEFE" transform="translate(0,0)"/>
<path d="" fill="#FEFEFE" transform="translate(0,0)"/>
<path d="" fill="#F5F5F5" transform="translate(0,0)"/>
<path d="" fill="#F5F5F5" transform="translate(0,0)"/>
<path d="" fill="#FEFEFE" transform="translate(0,0)"/>
<path d="" fill="#FEFEFE" transform="translate(0,0)"/>
<path d="" fill="#FEFEFE" transform="translate(0,0)"/>
<path d="" fill="#FEFEFE" transform="translate(0,0)"/>
<path d="" fill="#FEFEFE" transform="translate(0,0)"/>
<path d="" fill="#F5F5F5" transform="translate(0,0)"/>
<path d="" fill="#FEFEFE" transform="translate(0,0)"/>
<path d="" fill="#FEFEFE" transform="translate(0,0)"/>
<path d="" fill="#FEFEFE" transform="translate(0,0)"/>
<path d="" fill="#FEFEFE" transform="translate(0,0)"/>
<path d="" fill="#F5F5F5" transform="translate(0,0)"/>
<path d="" fill="#FEFEFE" transform="translate(0,0)"/>
<path d="" fill="#FEFEFE" transform="translate(0,0)"/>
<path d="" fill="#FEFEFE" transform="translate(0,0)"/>
<path d="" fill="#FEFEFE" transform="translate(0,0)"/>
<path d="" fill="#FEFEFE" transform="translate(0,0)"/>
<path d="" fill="#FEFEFE" transform="translate(0,0)"/>
<path d="" fill="#FEFEFE" transform="translate(0,0)"/>
<path d="" fill="#FEFEFE" transform="translate(0,0)"/>
<path d="" fill="#FEFEFE" transform="translate(0,0)"/>
<path d="" fill="#FEFEFE" transform="translate(0,0)"/>
<path d="" fill="#F5F5F5" transform="translate(0,0)"/>
<path d="" fill="#F5F5F5" transform="translate(0,0)"/>
<path d="" fill="#F5F5F5" transform="translate(0,0)"/>
<path d="" fill="#F5F5F5" transform="translate(0,0)"/>
<path d="" fill="#F5F5F5" transform="translate(0,0)"/>
<path d="" fill="#F5F5F5" transform="translate(0,0)"/>
<path d="" fill="#FEFEFE" transform="translate(0,0)"/>
<path d="" fill="#FEFEFE" transform="translate(0,0)"/>
<path d="" fill="#FEFEFE" transform="translate(0,0)"/>
<path d="" fill="#FEFEFE" transform="translate(0,0)"/>
<path d="" fill="#FEFEFE" transform="translate(0,0)"/>
<path d="" fill="#FEFEFE" transform="translate(0,0)"/>
<path d="" fill="#FEFEFE" transform="translate(0,0)"/>
<path d="" fill="#FEFEFE" transform="translate(0,0)"/>
<path d="" fill="#F5F5F5" transform="translate(0,0)"/>
<path d="" fill="#FEFEFE" transform="translate(0,0)"/>
<path d="" fill="#FEFEFE" transform="translate(0,0)"/>
<path d="" fill="#FEFEFE" transform="translate(0,0)"/>
<path d="" fill="#FEFEFE" transform="translate(0,0)"/>
<path d="" fill="#FEFEFE" transform="translate(0,0)"/>
<path d="" fill="#FEFEFE" transform="translate(0,0)"/>
<path d="" fill="#F5F5F5" transform="translate(0,0)"/>
<path d="" fill="#FEFEFE" transform="translate(0,0)"/>
<path d="" fill="#F5F5F5" transform="translate(0,0)"/>
<path d="" fill="#F5F5F5" transform="translate(0,0)"/>
<path d="" fill="#F5F5F5" transform="translate(0,0)"/>
<path d="" fill="#F5F5F5" transform="translate(0,0)"/>
<path d="" fill="#FEFEFE" transform="translate(0,0)"/>
<path d="" fill="#FEFEFE" transform="translate(0,0)"/>
<path d="" fill="#FEFEFE" transform="translate(0,0)"/>
<path d="" fill="#FEFEFE" transform="translate(0,0)"/>
<path d="" fill="#FEFEFE" transform="translate(0,0)"/>
<path d="" fill="#F5F5F5" transform="translate(0,0)"/>
<path d="" fill="#FEFEFE" transform="translate(0,0)"/>
<path d="" fill="#F5F5F5" transform="translate(0,0)"/>
<path d="" fill="#FEFEFE" transform="translate(0,0)"/>
<path d="" fill="#FEFEFE" transform="translate(0,0)"/>
<path d="" fill="#F5F5F5" transform="translate(0,0)"/>
<path d="" fill="#FEFEFE" transform="translate(0,0)"/>
<path d="" fill="#FEFEFE" transform="translate(0,0)"/>
<path d="" fill="#FEFEFE" transform="translate(0,0)"/>
<path d="" fill="#FEFEFE" transform="translate(0,0)"/>
<path d="" fill="#FEFEFE" transform="translate(0,0)"/>
<path d="" fill="#FEFEFE" transform="translate(0,0)"/>
<path d="" fill="#FEFEFE" transform="translate(0,0)"/>
<path d="" fill="#FEFEFE" transform="translate(0,0)"/>
<path d="" fill="#FEFEFE" transform="translate(0,0)"/>
<path d="" fill="#FEFEFE" transform="translate(0,0)"/>
<path d="" fill="#FEFEFE" transform="translate(0,0)"/>
<path d="" fill="#FEFEFE" transform="translate(0,0)"/>
<path d="" fill="#FEFEFE" transform="translate(0,0)"/>
<path d="" fill="#FEFEFE" transform="translate(0,0)"/>
<path d="" fill="#FEFEFE" transform="translate(0,0)"/>
<path d="" fill="#FEFEFE" transform="translate(0,0)"/>
<path d="" fill="#F5F5F5" transform="translate(0,0)"/>
<path d="" fill="#F5F5F5" transform="translate(0,0)"/>
<path d="" fill="#F5F5F5" transform="translate(0,0)"/>
<path d="" fill="#FEFEFE" transform="translate(0,0)"/>
<path d="" fill="#FEFEFE" transform="translate(0,0)"/>
<path d="" fill="#FEFEFE" transform="translate(0,0)"/>
<path d="" fill="#FEFEFE" transform="translate(0,0)"/>
<path d="" fill="#FEFEFE" transform="translate(0,0)"/>
<path d="" fill="#FEFEFE" transform="translate(0,0)"/>
<path d="" fill="#FEFEFE" transform="translate(0,0)"/>
<path d="" fill="#FEFEFE" transform="translate(0,0)"/>
<path d="" fill="#FEFEFE" transform="translate(0,0)"/>
<path d="" fill="#F5F5F5" transform="translate(0,0)"/>
<path d="" fill="#FEFEFE" transform="translate(0,0)"/>
<path d="" fill="#FEFEFE" transform="translate(0,0)"/>
<path d="" fill="#FEFEFE" transform="translate(0,0)"/>
<path d="" fill="#FEFEFE" transform="translate(0,0)"/>
<path d="" fill="#FEFEFE" transform="translate(0,0)"/>
<path d="" fill="#FEFEFE" transform="translate(0,0)"/>
<path d="" fill="#FEFEFE" transform="translate(0,0)"/>
<path d="" fill="#FEFEFE" transform="translate(0,0)"/>
<path d="" fill="#FEFEFE" transform="translate(0,0)"/>
<path d="" fill="#FEFEFE" transform="translate(0,0)"/>
<path d="" fill="#F5F5F5" transform="translate(0,0)"/>
<path d="" fill="#FEFEFE" transform="translate(0,0)"/>
<path d="" fill="#FEFEFE" transform="translate(0,0)"/>
<path d="" fill="#FEFEFE" transform="translate(0,0)"/>
<path d="" fill="#FEFEFE" transform="translate(0,0)"/>
<path d="" fill="#FEFEFE" transform="translate(0,0)"/>
<path d="" fill="#F5F5F5" transform="translate(0,0)"/>
<path d="" fill="#F5F5F5" transform="translate(0,0)"/>
<path d="" fill="#F5F5F5" transform="translate(0,0)"/>
<path d="" fill="#F5F5F5" transform="translate(0,0)"/>
<path d="" fill="#F5F5F5" transform="translate(0,0)"/>
<path d="" fill="#F5F5F5" transform="translate(0,0)"/>
<path d="" fill="#F5F5F5" transform="translate(0,0)"/>
<path d="" fill="#F5F5F5" transform="translate(0,0)"/>
<path d="" fill="#FEFEFE" transform="translate(0,0)"/>
<path d="" fill="#FEFEFE" transform="translate(0,0)"/>
<path d="" fill="#FEFEFE" transform="translate(0,0)"/>
<path d="" fill="#FEFEFE" transform="translate(0,0)"/>
<path d="" fill="#FEFEFE" transform="translate(0,0)"/>
<path d="" fill="#FEFEFE" transform="translate(0,0)"/>
<path d="" fill="#FEFEFE" transform="translate(0,0)"/>
<path d="" fill="#FEFEFE" transform="translate(0,0)"/>
<path d="" fill="#FEFEFE" transform="translate(0,0)"/>
<path d="" fill="#FEFEFE" transform="translate(0,0)"/>
<path d="" fill="#FEFEFE" transform="translate(0,0)"/>
<path d="" fill="#F5F5F5" transform="translate(0,0)"/>
<path d="" fill="#FEFEFE" transform="translate(0,0)"/>
<path d="" fill="#FEFEFE" transform="translate(0,0)"/>
<path d="" fill="#FEFEFE" transform="translate(0,0)"/>
<path d="" fill="#FEFEFE" transform="translate(0,0)"/>
<path d="" fill="#FEFEFE" transform="translate(0,0)"/>
<path d="" fill="#FEFEFE" transform="translate(0,0)"/>
<path d="" fill="#FEFEFE" transform="translate(0,0)"/>
<path d="" fill="#FEFEFE" transform="translate(0,0)"/>
<path d="" fill="#FEFEFE" transform="translate(0,0)"/>
<path d="" fill="#FEFEFE" transform="translate(0,0)"/>
<path d="" fill="#FEFEFE" transform="translate(0,0)"/>
<path d="" fill="#FEFEFE" transform="translate(0,0)"/>
<path d="" fill="#FEFEFE" transform="translate(0,0)"/>
<path d="" fill="#FEFEFE" transform="translate(0,0)"/>
<path d="" fill="#FEFEFE" transform="translate(0,0)"/>
<path d="" fill="#FEFEFE" transform="translate(0,0)"/>
<path d="" fill="#FEFEFE" transform="translate(0,0)"/>
<path d="" fill="#FEFEFE" transform="translate(0,0)"/>
<path d="" fill="#FEFEFE" transform="translate(0,0)"/>
<path d="" fill="#FEFEFE" transform="translate(0,0)"/>
<path d="" fill="#FEFEFE" transform="translate(0,0)"/>
<path d="" fill="#FEFEFE" transform="translate(0,0)"/>
<path d="" fill="#FEFEFE" transform="translate(0,0)"/>
<path d="" fill="#FEFEFE" transform="translate(0,0)"/>
<path d="" fill="#FEFEFE" transform="translate(0,0)"/>
<path d="" fill="#FEFEFE" transform="translate(0,0)"/>
<path d="" fill="#FEFEFE" transform="translate(0,0)"/>
<path d="" fill="#FEFEFE" transform="translate(0,0)"/>
<path d="" fill="#F5F5F5" transform="translate(0,0)"/>
<path d="" fill="#FEFEFE" transform="translate(0,0)"/>
<path d="" fill="#FEFEFE" transform="translate(0,0)"/>
<path d="" fill="#FEFEFE" transform="translate(0,0)"/>
<path d="" fill="#FEFEFE" transform="translate(0,0)"/>
<path d="" fill="#FEFEFE" transform="translate(0,0)"/>
<path d="" fill="#F5F5F5" transform="translate(0,0)"/>
<path d="" fill="#FEFEFE" transform="translate(0,0)"/>
<path d="" fill="#F5F5F5" transform="translate(0,0)"/>
<path d="" fill="#E7E8E8" transform="translate(0,0)"/>
<path d="" fill="#F5F5F5" transform="translate(0,0)"/>
<path d="" fill="#F5F5F5" transform="translate(0,0)"/>
<path d="" fill="#FEFEFE" transform="translate(0,0)"/>
<path d="" fill="#FEFEFE" transform="translate(0,0)"/>
<path d="" fill="#FEFEFE" transform="translate(0,0)"/>
<path d="" fill="#FEFEFE" transform="translate(0,0)"/>
<path d="" fill="#FEFEFE" transform="translate(0,0)"/>
<path d="" fill="#FEFEFE" transform="translate(0,0)"/>
<path d="" fill="#FEFEFE" transform="translate(0,0)"/>
<path d="" fill="#FEFEFE" transform="translate(0,0)"/>
<path d="" fill="#FEFEFE" transform="translate(0,0)"/>
<path d="" fill="#F5F5F5" transform="translate(0,0)"/>
<path d="" fill="#F5F5F5" transform="translate(0,0)"/>
<path d="" fill="#F5F5F5" transform="translate(0,0)"/>
<path d="" fill="#FEFEFE" transform="translate(0,0)"/>
<path d="" fill="#FEFEFE" transform="translate(0,0)"/>
<path d="" fill="#FEFEFE" transform="translate(0,0)"/>
<path d="" fill="#FEFEFE" transform="translate(0,0)"/>
<path d="" fill="#FEFEFE" transform="translate(0,0)"/>
<path d="" fill="#F5F5F5" transform="translate(0,0)"/>
<path d="" fill="#F5F5F5" transform="translate(0,0)"/>
<path d="" fill="#FEFEFE" transform="translate(0,0)"/>
<path d="" fill="#FEFEFE" transform="translate(0,0)"/>
<path d="" fill="#FEFEFE" transform="translate(0,0)"/>
<path d="" fill="#FEFEFE" transform="translate(0,0)"/>
<path d="" fill="#F5F5F5" transform="translate(0,0)"/>
<path d="" fill="#FEFEFE" transform="translate(0,0)"/>
<path d="" fill="#FEFEFE" transform="translate(0,0)"/>
<path d="" fill="#FEFEFE" transform="translate(0,0)"/>
<path d="" fill="#FEFEFE" transform="translate(0,0)"/>
<path d="" fill="#F5F5F5" transform="translate(0,0)"/>
<path d="" fill="#E7E8E8" transform="translate(0,0)"/>
<path d="" fill="#F5F5F5" transform="translate(0,0)"/>
<path d="" fill="#F5F5F5" transform="translate(0,0)"/>
<path d="" fill="#F5F5F5" transform="translate(0,0)"/>
<path d="" fill="#F5F5F5" transform="translate(0,0)"/>
<path d="" fill="#F5F5F5" transform="translate(0,0)"/>
<path d="" fill="#F5F5F5" transform="translate(0,0)"/>
<path d="" fill="#F5F5F5" transform="translate(0,0)"/>
<path d="" fill="#FEFEFE" transform="translate(0,0)"/>
<path d="" fill="#FEFEFE" transform="translate(0,0)"/>
<path d="" fill="#F5F5F5" transform="translate(0,0)"/>
<path d="" fill="#FEFEFE" transform="translate(0,0)"/>
<path d="" fill="#F5F5F5" transform="translate(0,0)"/>
<path d="" fill="#F5F5F5" transform="translate(0,0)"/>
<path d="" fill="#FEFEFE" transform="translate(0,0)"/>
<path d="" fill="#FEFEFE" transform="translate(0,0)"/>
<path d="" fill="#FEFEFE" transform="translate(0,0)"/>
<path d="" fill="#F5F5F5" transform="translate(0,0)"/>
<path d="" fill="#FEFEFE" transform="translate(0,0)"/>
<path d="" fill="#FEFEFE" transform="translate(0,0)"/>
<path d="" fill="#FEFEFE" transform="translate(0,0)"/>
<path d="" fill="#FEFEFE" transform="translate(0,0)"/>
<path d="" fill="#FEFEFE" transform="translate(0,0)"/>
<path d="" fill="#FEFEFE" transform="translate(0,0)"/>
<path d="" fill="#FEFEFE" transform="translate(0,0)"/>
<path d="" fill="#F5F5F5" transform="translate(0,0)"/>
<path d="" fill="#F5F5F5" transform="translate(0,0)"/>
<path d="" fill="#F5F5F5" transform="translate(0,0)"/>
<path d="" fill="#F5F5F5" transform="translate(0,0)"/>
<path d="" fill="#FEFEFE" transform="translate(0,0)"/>
<path d="" fill="#FEFEFE" transform="translate(0,0)"/>
<path d="" fill="#FEFEFE" transform="translate(0,0)"/>
<path d="" fill="#F5F5F5" transform="translate(0,0)"/>
<path d="" fill="#FEFEFE" transform="translate(0,0)"/>
<path d="" fill="#FEFEFE" transform="translate(0,0)"/>
<path d="" fill="#FEFEFE" transform="translate(0,0)"/>
<path d="" fill="#FEFEFE" transform="translate(0,0)"/>
<path d="" fill="#FEFEFE" transform="translate(0,0)"/>
<path d="" fill="#FEFEFE" transform="translate(0,0)"/>
<path d="" fill="#FEFEFE" transform="translate(0,0)"/>
<path d="" fill="#F5F5F5" transform="translate(0,0)"/>
<path d="" fill="#FEFEFE" transform="translate(0,0)"/>
<path d="" fill="#FEFEFE" transform="translate(0,0)"/>
<path d="" fill="#F5F5F5" transform="translate(0,0)"/>
<path d="" fill="#FEFEFE" transform="translate(0,0)"/>
<path d="" fill="#F5F5F5" transform="translate(0,0)"/>
<path d="" fill="#FEFEFE" transform="translate(0,0)"/>
<path d="" fill="#FEFEFE" transform="translate(0,0)"/>
<path d="" fill="#FEFEFE" transform="translate(0,0)"/>
<path d="" fill="#FEFEFE" transform="translate(0,0)"/>
<path d="" fill="#FEFEFE" transform="translate(0,0)"/>
<path d="" fill="#FEFEFE" transform="translate(0,0)"/>
<path d="" fill="#F5F5F5" transform="translate(0,0)"/>
<path d="" fill="#F5F5F5" transform="translate(0,0)"/>
<path d="" fill="#F5F5F5" transform="translate(0,0)"/>
<path d="" fill="#FEFEFE" transform="translate(0,0)"/>
<path d="" fill="#F5F5F5" transform="translate(0,0)"/>
<path d="" fill="#F5F5F5" transform="translate(0,0)"/>
<path d="" fill="#FEFEFE" transform="translate(0,0)"/>
<path d="" fill="#F5F5F5" transform="translate(0,0)"/>
<path d="" fill="#FEFEFE" transform="translate(0,0)"/>
<path d="" fill="#FEFEFE" transform="translate(0,0)"/>
<path d="" fill="#FEFEFE" transform="translate(0,0)"/>
<path d="" fill="#F5F5F5" transform="translate(0,0)"/>
<path d="" fill="#F5F5F5" transform="translate(0,0)"/>
<path d="" fill="#F5F5F5" transform="translate(0,0)"/>
<path d="" fill="#F5F5F5" transform="translate(0,0)"/>
<path d="" fill="#FEFEFE" transform="translate(0,0)"/>
<path d="" fill="#FEFEFE" transform="translate(0,0)"/>
<path d="" fill="#E7E8E8" transform="translate(0,0)"/>
<path d="" fill="#FEFEFE" transform="translate(0,0)"/>
<path d="" fill="#FEFEFE" transform="translate(0,0)"/>
<path d="" fill="#FEFEFE" transform="translate(0,0)"/>
<path d="" fill="#FEFEFE" transform="translate(0,0)"/>
<path d="" fill="#FEFEFE" transform="translate(0,0)"/>
<path d="" fill="#F5F5F5" transform="translate(0,0)"/>
<path d="" fill="#E7E8E8" transform="translate(0,0)"/>
<path d="" fill="#F5F5F5" transform="translate(0,0)"/>
<path d="" fill="#F5F5F5" transform="translate(0,0)"/>
<path d="" fill="#F5F5F5" transform="translate(0,0)"/>
<path d="" fill="#F5F5F5" transform="translate(0,0)"/>
<path d="" fill="#FEFEFE" transform="translate(0,0)"/>
<path d="" fill="#F5F5F5" transform="translate(0,0)"/>
<path d="" fill="#F5F5F5" transform="translate(0,0)"/>
<path d="" fill="#F5F5F5" transform="translate(0,0)"/>
<path d="" fill="#F5F5F5" transform="translate(0,0)"/>
<path d="" fill="#F5F5F5" transform="translate(0,0)"/>
<path d="" fill="#F5F5F5" transform="translate(0,0)"/>
<path d="" fill="#F5F5F5" transform="translate(0,0)"/>
<path d="" fill="#FEFEFE" transform="translate(0,0)"/>
<path d="" fill="#FEFEFE" transform="translate(0,0)"/>
<path d="" fill="#F5F5F5" transform="translate(0,0)"/>
<path d="" fill="#F5F5F5" transform="translate(0,0)"/>
<path d="" fill="#F5F5F5" transform="translate(0,0)"/>
<path d="" fill="#F5F5F5" transform="translate(0,0)"/>
<path d="" fill="#F5F5F5" transform="translate(0,0)"/>
<path d="" fill="#F5F5F5" transform="translate(0,0)"/>
<path d="" fill="#FEFEFE" transform="translate(0,0)"/>
<path d="" fill="#F5F5F5" transform="translate(0,0)"/>
<path d="" fill="#FEFEFE" transform="translate(0,0)"/>
<path d="" fill="#F5F5F5" transform="translate(0,0)"/>
<path d="" fill="#FEFEFE" transform="translate(0,0)"/>
<path d="" fill="#F5F5F5" transform="translate(0,0)"/>
<path d="" fill="#F5F5F5" transform="translate(0,0)"/>
<path d="" fill="#F5F5F5" transform="translate(0,0)"/>
<path d="" fill="#FEFEFE" transform="translate(0,0)"/>
<path d="" fill="#F5F5F5" transform="translate(0,0)"/>
<path d="" fill="#FEFEFE" transform="translate(0,0)"/>
<path d="" fill="#F5F5F5" transform="translate(0,0)"/>
<path d="" fill="#F5F5F5" transform="translate(0,0)"/>
<path d="" fill="#F5F5F5" transform="translate(0,0)"/>
<path d="" fill="#FEFEFE" transform="translate(0,0)"/>
<path d="" fill="#F5F5F5" transform="translate(0,0)"/>
<path d="" fill="#F5F5F5" transform="translate(0,0)"/>
<path d="" fill="#F5F5F5" transform="translate(0,0)"/>
<path d="" fill="#FEFEFE" transform="translate(0,0)"/>
<path d="" fill="#FEFEFE" transform="translate(0,0)"/>
<path d="" fill="#FEFEFE" transform="translate(0,0)"/>
<path d="" fill="#FEFEFE" transform="translate(0,0)"/>
<path d="" fill="#FEFEFE" transform="translate(0,0)"/>
<path d="" fill="#F5F5F5" transform="translate(0,0)"/>
<path d="" fill="#FEFEFE" transform="translate(0,0)"/>
<path d="" fill="#FEFEFE" transform="translate(0,0)"/>
<path d="" fill="#FEFEFE" transform="translate(0,0)"/>
<path d="" fill="#FEFEFE" transform="translate(0,0)"/>
<path d="" fill="#F5F5F5" transform="translate(0,0)"/>
<path d="" fill="#FEFEFE" transform="translate(0,0)"/>
<path d="" fill="#F5F5F5" transform="translate(0,0)"/>
<path d="" fill="#FEFEFE" transform="translate(0,0)"/>
<path d="" fill="#FEFEFE" transform="translate(0,0)"/>
<path d="" fill="#FEFEFE" transform="translate(0,0)"/>
<path d="" fill="#FEFEFE" transform="translate(0,0)"/>
<path d="" fill="#FEFEFE" transform="translate(0,0)"/>
<path d="" fill="#F5F5F5" transform="translate(0,0)"/>
<path d="" fill="#FEFEFE" transform="translate(0,0)"/>
<path d="" fill="#FEFEFE" transform="translate(0,0)"/>
<path d="" fill="#FEFEFE" transform="translate(0,0)"/>
<path d="" fill="#FEFEFE" transform="translate(0,0)"/>
<path d="" fill="#FEFEFE" transform="translate(0,0)"/>
<path d="" fill="#F5F5F5" transform="translate(0,0)"/>
<path d="" fill="#FEFEFE" transform="translate(0,0)"/>
<path d="" fill="#FEFEFE" transform="translate(0,0)"/>
<path d="" fill="#FEFEFE" transform="translate(0,0)"/>
<path d="" fill="#F5F5F5" transform="translate(0,0)"/>
<path d="" fill="#FEFEFE" transform="translate(0,0)"/>
<path d="" fill="#F5F5F5" transform="translate(0,0)"/>
<path d="" fill="#FEFEFE" transform="translate(0,0)"/>
<path d="" fill="#FEFEFE" transform="translate(0,0)"/>
<path d="" fill="#F5F5F5" transform="translate(0,0)"/>
<path d="" fill="#FEFEFE" transform="translate(0,0)"/>
<path d="" fill="#F5F5F5" transform="translate(0,0)"/>
<path d="" fill="#FEFEFE" transform="translate(0,0)"/>
<path d="" fill="#FEFEFE" transform="translate(0,0)"/>
<path d="" fill="#FEFEFE" transform="translate(0,0)"/>
<path d="" fill="#FEFEFE" transform="translate(0,0)"/>
<path d="" fill="#FEFEFE" transform="translate(0,0)"/>
<path d="" fill="#FEFEFE" transform="translate(0,0)"/>
<path d="" fill="#FEFEFE" transform="translate(0,0)"/>
<path d="" fill="#FEFEFE" transform="translate(0,0)"/>
<path d="" fill="#FEFEFE" transform="translate(0,0)"/>
<path d="" fill="#F5F5F5" transform="translate(0,0)"/>
<path d="" fill="#F5F5F5" transform="translate(0,0)"/>
<path d="" fill="#FEFEFE" transform="translate(0,0)"/>
<path d="" fill="#F5F5F5" transform="translate(0,0)"/>
<path d="" fill="#F5F5F5" transform="translate(0,0)"/>
<path d="" fill="#F5F5F5" transform="translate(0,0)"/>
<path d="" fill="#F5F5F5" transform="translate(0,0)"/>
<path d="" fill="#FEFEFE" transform="translate(0,0)"/>
<path d="" fill="#FEFEFE" transform="translate(0,0)"/>
<path d="" fill="#FEFEFE" transform="translate(0,0)"/>
<path d="" fill="#FEFEFE" transform="translate(0,0)"/>
<path d="" fill="#FEFEFE" transform="translate(0,0)"/>
<path d="" fill="#FEFEFE" transform="translate(0,0)"/>
<path d="" fill="#FEFEFE" transform="translate(0,0)"/>
<path d="" fill="#FEFEFE" transform="translate(0,0)"/>
<path d="" fill="#FEFEFE" transform="translate(0,0)"/>
<path d="" fill="#FEFEFE" transform="translate(0,0)"/>
<path d="" fill="#FEFEFE" transform="translate(0,0)"/>
<path d="" fill="#FEFEFE" transform="translate(0,0)"/>
<path d="" fill="#FEFEFE" transform="translate(0,0)"/>
<path d="" fill="#FEFEFE" transform="translate(0,0)"/>
<path d="" fill="#FEFEFE" transform="translate(0,0)"/>
<path d="" fill="#FEFEFE" transform="translate(0,0)"/>
<path d="" fill="#FEFEFE" transform="translate(0,0)"/>
<path d="" fill="#FEFEFE" transform="translate(0,0)"/>
<path d="" fill="#FEFEFE" transform="translate(0,0)"/>
<path d="" fill="#FEFEFE" transform="translate(0,0)"/>
<path d="" fill="#FEFEFE" transform="translate(0,0)"/>
<path d="" fill="#FEFEFE" transform="translate(0,0)"/>
<path d="" fill="#F5F5F5" transform="translate(0,0)"/>
<path d="" fill="#F5F5F5" transform="translate(0,0)"/>
<path d="" fill="#F5F5F5" transform="translate(0,0)"/>
<path d="" fill="#E7E8E8" transform="translate(0,0)"/>
<path d="" fill="#F5F5F5" transform="translate(0,0)"/>
<path d="" fill="#F5F5F5" transform="translate(0,0)"/>
<path d="" fill="#E7E8E8" transform="translate(0,0)"/>
<path d="" fill="#F5F5F5" transform="translate(0,0)"/>
<path d="" fill="#F5F5F5" transform="translate(0,0)"/>
<path d="" fill="#F5F5F5" transform="translate(0,0)"/>
<path d="" fill="#E7E8E8" transform="translate(0,0)"/>
<path d="" fill="#E7E8E8" transform="translate(0,0)"/>
<path d="" fill="#D9D9D9" transform="translate(0,0)"/>
<path d="" fill="#D9D9D9" transform="translate(0,0)"/>
<path d="" fill="#E7E8E8" transform="translate(0,0)"/>
<path d="" fill="#E7E8E8" transform="translate(0,0)"/>
<path d="" fill="#E7E8E8" transform="translate(0,0)"/>
<path d="" fill="#E7E8E8" transform="translate(0,0)"/>
<path d="" fill="#E7E8E8" transform="translate(0,0)"/>
<path d="" fill="#D9D9D9" transform="translate(0,0)"/>
<path d="" fill="#4C4C4C" transform="translate(0,0)"/>
<path d="" fill="#808080" transform="translate(0,0)"/>
<path d="" fill="#3B3B3B" transform="translate(0,0)"/>
<path d="" fill="#3B3B3B" transform="translate(0,0)"/>
<path d="" fill="#3B3B3B" transform="translate(0,0)"/>
<path d="" fill="#575757" transform="translate(0,0)"/>
<path d="" fill="#4C4C4C" transform="translate(0,0)"/>
<path d="" fill="#3B3B3B" transform="translate(0,0)"/>
<path d="" fill="#3B3B3B" transform="translate(0,0)"/>
<path d="" fill="#4C4C4C" transform="translate(0,0)"/>
</svg>